Resistance générale.ufo
<glyph name="exclam" format="1">
  <advance width="877"/>
  <unicode hex="0021"/>
  <outline>
    <contour>
      <point x="558" y="1540" type="line"/>
      <point x="304" y="1540" type="line"/>
      <point x="304" y="395" type="line"/>
      <point x="558" y="553" type="line"/>
    </contour>
    <contour>
      <point x="275" y="118" type="line"/>
      <point x="429" y="-35" type="line"/>
      <point x="582" y="118" type="line"/>
      <point x="429" y="272" type="line"/>
    </contour>
  </outline>
</glyph>
<glyph name="quotedbl" format="1">
  <advance width="1103"/>
  <unicode hex="0022"/>
  <outline>
    <contour>
      <point x="740" y="990" type="line"/>
      <point x="585" y="1144" type="line"/>
      <point x="624" y="1313" type="line"/>
      <point x="640" y="1366" type="line"/>
      <point x="714" y="1441" type="line"/>
      <point x="896" y="1441" type="line"/>
      <point x="768" y="1313" type="line"/>
      <point x="760" y="1279" type="line"/>
      <point x="894" y="1145" type="line"/>
    </contour>
    <contour>
      <point x="352" y="990" type="line"/>
      <point x="197" y="1144" type="line"/>
      <point x="236" y="1313" type="line"/>
      <point x="252" y="1366" type="line"/>
      <point x="326" y="1441" type="line"/>
      <point x="508" y="1441" type="line"/>
      <point x="380" y="1313" type="line"/>
      <point x="372" y="1279" type="line"/>
      <point x="506" y="1145" type="line"/>
    </contour>
  </outline>
</glyph>
<glyph name="ampersand" format="1">
  <advance width="1308"/>
  <unicode hex="0026"/>
  <outline>
    <contour>
      <point x="973" y="752" type="line"/>
      <point x="973" y="501" type="line"/>
      <point x="1098" y="627" type="line"/>
      <point x="1223" y="657" type="line"/>
      <point x="1223" y="752" type="line"/>
    </contour>
    <contour>
      <point x="746" y="1400" type="line"/>
      <point x="447" y="1400" type="line"/>
      <point x="221" y="1149" type="line"/>
      <point x="221" y="1149" type="line"/>
      <point x="221" y="1002" type="line"/>
      <point x="221" y="1002" type="line"/>
      <point x="447" y="752" type="line"/>
      <point x="321" y="752" type="line"/>
      <point x="95" y="501" type="line"/>
      <point x="95" y="251" type="line"/>
      <point x="321" y="0" type="line"/>
      <point x="746" y="0" type="line"/>
      <point x="847" y="112" type="line"/>
      <point x="948" y="0" type="line"/>
      <point x="1223" y="0" type="line"/>
      <point x="1223" y="95" type="line"/>
      <point x="973" y="251" type="line"/>
      <point x="973" y="501" type="line"/>
      <point x="973" y="501" type="line"/>
      <point x="746" y="752" type="line"/>
      <point x="973" y="1002" type="line"/>
      <point x="973" y="1002" type="line"/>
      <point x="973" y="1149" type="line"/>
      <point x="973" y="1149" type="line"/>
    </contour>
    <contour>
      <point x="472" y="1003" type="line"/>
      <point x="472" y="1305" type="line"/>
      <point x="597" y="1274" type="line"/>
      <point x="722" y="1149" type="line"/>
      <point x="722" y="846" type="line"/>
    </contour>
    <contour>
      <point x="346" y="653" type="line"/>
      <point x="472" y="653" type="line"/>
      <point x="597" y="626" type="line"/>
      <point x="722" y="501" type="line"/>
      <point x="722" y="98" type="line"/>
      <point x="596" y="98" type="line"/>
      <point x="346" y="251" type="line"/>
    </contour>
  </outline>
</glyph>
<glyph name="quotesingle" format="1">
  <advance width="726"/>
  <unicode hex="0027"/>
  <outline>
    <contour>
      <point x="188" y="1287" type="line"/>
      <point x="321" y="1153" type="line"/>
      <point x="313" y="1119" type="line"/>
      <point x="185" y="991" type="line"/>
      <point x="366" y="991" type="line"/>
      <point x="441" y="1066" type="line"/>
      <point x="457" y="1119" type="line"/>
      <point x="497" y="1287" type="line"/>
      <point x="342" y="1441" type="line"/>
    </contour>
  </outline>
</glyph>
<glyph name="parenleft" format="1">
  <advance width="980"/>
  <unicode hex="0028"/>
  <outline>
    <contour>
      <point x="524" y="1403" type="line"/>
      <point x="295" y="1149" type="line"/>
      <point x="295" y="253" type="line"/>
      <point x="295" y="253" type="line"/>
      <point x="295" y="229" type="line"/>
      <point x="548" y="0" type="line"/>
      <point x="801" y="0" type="line"/>
      <point x="801" y="24" type="line"/>
      <point x="548" y="253" type="line"/>
      <point x="548" y="1149" type="line"/>
      <point x="675" y="1276" type="line"/>
      <point x="801" y="1307" type="line"/>
      <point x="801" y="1403" type="line"/>
    </contour>
  </outline>
</glyph>
<glyph name="parenright" format="1">
  <advance width="998"/>
  <unicode hex="0029"/>
  <outline>
    <contour>
      <point x="446" y="0" type="line"/>
      <point x="675" y="253" type="line"/>
      <point x="676" y="1149" type="line"/>
      <point x="676" y="1149" type="line"/>
      <point x="676" y="1173" type="line"/>
      <point x="423" y="1403" type="line"/>
      <point x="170" y="1403" type="line"/>
      <point x="170" y="1378" type="line"/>
      <point x="423" y="1149" type="line"/>
      <point x="422" y="253" type="line"/>
      <point x="295" y="127" type="line"/>
      <point x="168" y="96" type="line"/>
      <point x="168" y="0" type="line"/>
    </contour>
  </outline>
</glyph>
<glyph name="comma" format="1">
  <advance width="703"/>
  <unicode hex="002C"/>
  <outline>
    <contour>
      <point x="187" y="134" type="line"/>
      <point x="320" y="0" type="line"/>
      <point x="312" y="-34" type="line"/>
      <point x="184" y="-162" type="line"/>
      <point x="365" y="-162" type="line"/>
      <point x="440" y="-87" type="line"/>
      <point x="456" y="-34" type="line"/>
      <point x="496" y="134" type="line"/>
      <point x="341" y="288" type="line"/>
    </contour>
  </outline>
</glyph>
<glyph name="slash" format="1">
  <advance width="700"/>
  <unicode hex="002F"/>
  <outline>
    <contour>
      <point x="12" y="26" type="line"/>
      <point x="36" y="0" type="line"/>
      <point x="270" y="0" type="line"/>
      <point x="694" y="1411" type="line"/>
      <point x="674" y="1434" type="line"/>
      <point x="434" y="1434" type="line"/>
    </contour>
  </outline>
</glyph>
<glyph name="zero" format="1">
  <advance width="1074"/>
  <unicode hex="0030"/>
  <outline>
    <contour>
      <point x="416" y="1400" type="line"/>
      <point x="416" y="1399" type="line"/>
      <point x="392" y="1399" type="line"/>
      <point x="163" y="1147" type="line"/>
      <point x="162" y="1147" type="line"/>
      <point x="162" y="1145" type="line"/>
      <point x="162" y="1145" type="line"/>
      <point x="162" y="1145" type="line"/>
      <point x="162" y="254" type="line"/>
      <point x="164" y="254" type="line"/>
      <point x="392" y="2" type="line"/>
      <point x="416" y="2" type="line"/>
      <point x="416" y="0" type="line"/>
      <point x="670" y="0" type="line"/>
      <point x="670" y="0" type="line"/>
      <point x="693" y="0" type="line"/>
      <point x="922" y="254" type="line"/>
      <point x="923" y="254" type="line"/>
      <point x="923" y="1146" type="line"/>
      <point x="693" y="1400" type="line"/>
      <point x="670" y="1400" type="line"/>
      <point x="670" y="1400" type="line"/>
    </contour>
    <contour>
      <point x="416" y="1304" type="line"/>
      <point x="542" y="1273" type="line"/>
      <point x="668" y="1147" type="line"/>
      <point x="668" y="994" type="line"/>
      <point x="669" y="994" type="line"/>
      <point x="669" y="97" type="line"/>
      <point x="416" y="254" type="line"/>
      <point x="416" y="1147" type="line"/>
      <point x="416" y="1147" type="line"/>
    </contour>
  </outline>
</glyph>
<glyph name="one" format="1">
  <advance width="1074"/>
  <unicode hex="0031"/>
  <outline>
    <contour>
      <point x="485" y="1438" type="line"/>
      <point x="485" y="1438" type="line"/>
      <point x="484" y="1438" type="line"/>
      <point x="484" y="1438" type="line"/>
      <point x="229" y="1278" type="line"/>
      <point x="229" y="1144" type="line"/>
      <point x="484" y="1144" type="line"/>
      <point x="484" y="0" type="line"/>
      <point x="741" y="0" type="line"/>
      <point x="741" y="1278" type="line"/>
      <point x="485" y="1438" type="line"/>
    </contour>
  </outline>
</glyph>
<glyph name="two" format="1">
  <advance width="1074"/>
  <unicode hex="0032"/>
  <outline>
    <contour>
      <point x="634" y="556" type="line"/>
      <point x="745" y="588" type="line"/>
      <point x="852" y="715" type="line"/>
      <point x="852.0" y="715.0" name="inserted"/>
      <point x="852.5" y="714.5"/>
      <point x="853" y="714" type="qcurve"/>
      <point x="927" y="811" type="line"/>
      <point x="927" y="1145" type="line"/>
      <point x="928" y="1145" type="line"/>
      <point x="791" y="1400" type="line"/>
      <point x="356" y="1400" type="line"/>
      <point x="220" y="1273" type="line"/>
      <point x="219" y="1145" type="line"/>
      <point x="377" y="1145" type="line"/>
      <point x="377" y="1145" type="line"/>
      <point x="487" y="1273" type="line"/>
      <point x="596" y="1304" type="line"/>
      <point x="596" y="1304" type="line"/>
      <point x="673" y="1304" type="line"/>
      <point x="673" y="917" type="line"/>
      <point x="600" y="789" type="line"/>
      <point x="491" y="758" type="line"/>
      <point x="490" y="759" type="line"/>
      <point x="346" y="728" type="line"/>
      <point x="164" y="504" type="line"/>
      <point x="164" y="0" type="line"/>
      <point x="207" y="0" type="line"/>
      <point x="206" y="0" type="line"/>
      <point x="906" y="0" type="line"/>
      <point x="906" y="255" type="line"/>
      <point x="779" y="255" type="line"/>
      <point x="779" y="255" type="line"/>
      <point x="673" y="149" type="line"/>
      <point x="419" y="149" type="line"/>
      <point x="419" y="399" type="line"/>
      <point x="490" y="526" type="line"/>
    </contour>
  </outline>
</glyph>
<glyph name="three" format="1">
  <advance width="1074"/>
  <unicode hex="0033"/>
  <outline>
    <contour>
      <point x="366" y="1400" type="line"/>
      <point x="138" y="1148" type="line"/>
      <point x="136" y="1148" type="line"/>
      <point x="136" y="1023" type="line"/>
      <point x="390" y="1023" type="line"/>
      <point x="390" y="1304" type="line"/>
      <point x="517" y="1273" type="line"/>
      <point x="643" y="1147" type="line"/>
      <point x="643" y="764" type="line"/>
      <point x="644" y="764" type="line"/>
      <point x="644" y="763" type="line"/>
      <point x="390" y="763" type="line"/>
      <point x="390" y="667" type="line"/>
      <point x="517" y="636" type="line"/>
      <point x="644" y="509" type="line"/>
      <point x="643" y="509" type="line"/>
      <point x="643" y="98" type="line"/>
      <point x="392" y="254" type="line"/>
      <point x="392" y="381" type="line"/>
      <point x="138" y="381" type="line"/>
      <point x="138" y="254" type="line"/>
      <point x="139" y="254" type="line"/>
      <point x="368" y="0" type="line"/>
      <point x="644" y="0" type="line"/>
      <point x="897" y="159" type="line"/>
      <point x="898" y="533" type="line"/>
      <point x="784" y="637" type="line"/>
      <point x="898" y="740" type="line"/>
      <point x="898" y="1145" type="line"/>
      <point x="669" y="1400" type="line"/>
    </contour>
  </outline>
</glyph>
<glyph name="four" format="1">
  <advance width="1074"/>
  <unicode hex="0034"/>
  <outline>
    <contour>
      <point x="609" y="1429" type="line"/>
      <point x="609" y="1429" type="line"/>
      <point x="100" y="650" type="line"/>
      <point x="164" y="382" type="line"/>
      <point x="609" y="382" type="line"/>
      <point x="609" y="0" type="line"/>
      <point x="863" y="0" type="line"/>
      <point x="863" y="380" type="line"/>
      <point x="991" y="380" type="line"/>
      <point x="991" y="530" type="line"/>
      <point x="863" y="530" type="line"/>
      <point x="863" y="1270" type="line"/>
    </contour>
    <contour>
      <point x="266" y="590" type="line"/>
      <point x="607" y="1128" type="line"/>
      <point x="607" y="528" type="line"/>
      <point x="353" y="528" type="line"/>
    </contour>
  </outline>
</glyph>
<glyph name="five" format="1">
  <advance width="1074"/>
  <unicode hex="0035"/>
  <outline>
    <contour>
      <point x="191" y="1400" type="line"/>
      <point x="191" y="806" type="line"/>
      <point x="339" y="679" type="line"/>
      <point x="445" y="679" type="line"/>
      <point x="445" y="679" type="line"/>
      <point x="573" y="647" type="line"/>
      <point x="700" y="520" type="line"/>
      <point x="700" y="96" type="line"/>
      <point x="636" y="96" type="line"/>
      <point x="509" y="127" type="line"/>
      <point x="382" y="255" type="line"/>
      <point x="382" y="255" type="line"/>
      <point x="191" y="255" type="line"/>
      <point x="191" y="127" type="line"/>
      <point x="357" y="0" type="line"/>
      <point x="700" y="0" type="line"/>
      <point x="954" y="230" type="line"/>
      <point x="954" y="520" type="line"/>
      <point x="725" y="806" type="line"/>
      <point x="445" y="806" type="line"/>
      <point x="445" y="1251" type="line"/>
      <point x="657" y="1251" type="line"/>
      <point x="763" y="1145" type="line"/>
      <point x="763" y="1145" type="line"/>
      <point x="890" y="1145" type="line"/>
      <point x="891" y="1400" type="line"/>
    </contour>
  </outline>
</glyph>
<glyph name="six" format="1">
  <advance width="1074"/>
  <unicode hex="0036"/>
  <outline>
    <contour>
      <point x="452" y="1400" type="line"/>
      <point x="452" y="1400" type="line"/>
      <point x="197" y="1242" type="line"/>
      <point x="197" y="255" type="line"/>
      <point x="427" y="0" type="line"/>
      <point x="731" y="0" type="line"/>
      <point x="961" y="255" type="line"/>
      <point x="961" y="636" type="line"/>
      <point x="731" y="891" type="line"/>
      <point x="452" y="891" type="line"/>
      <point x="452" y="1305" type="line"/>
      <point x="579" y="1273" type="line"/>
      <point x="706" y="1145" type="line"/>
      <point x="706" y="1145" type="line"/>
      <point x="897" y="1145" type="line"/>
      <point x="897" y="1273" type="line"/>
      <point x="731" y="1400" type="line"/>
    </contour>
    <contour>
      <point x="452" y="795" type="line"/>
      <point x="579" y="763" type="line"/>
      <point x="706" y="636" type="line"/>
      <point x="706" y="96" type="line"/>
      <point x="452" y="255" type="line"/>
    </contour>
  </outline>
</glyph>
<glyph name="seven" format="1">
  <advance width="1074"/>
  <unicode hex="0037"/>
  <outline>
    <contour>
      <point x="167" y="1400" type="line"/>
      <point x="167" y="1395" type="line"/>
      <point x="167" y="1240" type="line"/>
      <point x="168" y="1145" type="line"/>
      <point x="295" y="1145" type="line"/>
      <point x="295" y="1145" type="line"/>
      <point x="401" y="1251" type="line"/>
      <point x="667" y="1251" type="line"/>
      <point x="176" y="0" type="line"/>
      <point x="441" y="0" type="line"/>
      <point x="931" y="1251" type="line"/>
      <point x="931" y="1400" type="line"/>
    </contour>
  </outline>
</glyph>
<glyph name="eight" format="1">
  <advance width="1074"/>
  <unicode hex="0038"/>
  <outline>
    <contour>
      <point x="395" y="1400" type="line"/>
      <point x="395" y="1400" type="line"/>
      <point x="141" y="1170" type="line"/>
      <point x="162" y="981" type="line"/>
      <point x="353" y="727" type="line"/>
      <point x="162" y="473" type="line"/>
      <point x="141" y="255" type="line"/>
      <point x="141" y="230" type="line"/>
      <point x="395" y="0" type="line"/>
      <point x="395" y="0" type="line"/>
      <point x="395" y="0" type="line"/>
      <point x="713" y="0" type="line"/>
      <point x="713" y="0" type="line"/>
      <point x="967" y="230" type="line"/>
      <point x="967" y="255" type="line"/>
      <point x="946" y="473" type="line"/>
      <point x="755" y="727" type="line"/>
      <point x="946" y="981" type="line"/>
      <point x="967" y="1145" type="line"/>
      <point x="737" y="1400" type="line"/>
      <point x="565" y="1400" type="line"/>
    </contour>
    <contour>
      <point x="438" y="856" type="line"/>
      <point x="395" y="989" type="line"/>
      <point x="395" y="1303" type="line"/>
      <point x="565" y="1273" type="line"/>
      <point x="713" y="1145" type="line"/>
      <point x="713" y="987" type="line"/>
      <point x="670" y="793" type="line"/>
    </contour>
    <contour>
      <point x="395" y="255" type="line"/>
      <point x="434" y="654" type="line"/>
      <point x="587" y="631" type="line"/>
      <point x="683" y="535" type="line"/>
      <point x="713" y="255" type="line"/>
      <point x="713" y="255" type="line"/>
      <point x="713" y="96" type="line"/>
    </contour>
  </outline>
</glyph>
<glyph name="nine" format="1">
  <advance width="1074"/>
  <unicode hex="0039"/>
  <outline>
    <contour>
      <point x="381" y="1400" type="line"/>
      <point x="151" y="1145" type="line"/>
      <point x="151" y="764" type="line"/>
      <point x="381" y="509" type="line"/>
      <point x="660" y="509" type="line"/>
      <point x="660" y="95" type="line"/>
      <point x="532" y="127" type="line"/>
      <point x="405" y="255" type="line"/>
      <point x="405" y="255" type="line"/>
      <point x="214" y="255" type="line"/>
      <point x="214" y="127" type="line"/>
      <point x="381" y="0" type="line"/>
      <point x="660" y="0" type="line"/>
      <point x="660" y="0" type="line"/>
      <point x="914" y="159" type="line"/>
      <point x="914" y="1145" type="line"/>
      <point x="684" y="1400" type="line"/>
    </contour>
    <contour>
      <point x="405" y="764" type="line"/>
      <point x="405" y="1304" type="line"/>
      <point x="533" y="1272" type="line"/>
      <point x="660" y="1145" type="line"/>
      <point x="660" y="605" type="line"/>
    </contour>
  </outline>
</glyph>
<glyph name="colon" format="1">
  <advance width="488"/>
  <unicode hex="003A"/>
  <outline>
    <contour>
      <point x="237" y="309" type="line"/>
      <point x="82" y="155" type="line"/>
      <point x="237" y="0" type="line"/>
      <point x="391" y="155" type="line"/>
    </contour>
    <contour>
      <point x="237" y="900" type="line"/>
      <point x="82" y="746" type="line"/>
      <point x="237" y="591" type="line"/>
      <point x="391" y="746" type="line"/>
    </contour>
  </outline>
</glyph>
<glyph name="question" format="1">
  <advance width="1050"/>
  <unicode hex="003F"/>
  <outline>
    <contour>
      <point x="173" y="115" type="line"/>
      <point x="327" y="-39" type="line"/>
      <point x="481" y="115" type="line"/>
      <point x="327" y="268" type="line"/>
    </contour>
    <contour>
      <point x="730" y="1538" type="line"/>
      <point x="197" y="1538" type="line"/>
      <point x="-57" y="1309" type="line"/>
      <point x="-57" y="1284" type="line"/>
      <point x="197" y="1284" type="line"/>
      <point x="197" y="1283" type="line"/>
      <point x="324" y="1411" type="line"/>
      <point x="452" y="1442" type="line"/>
      <point x="578" y="1411" type="line"/>
      <point x="706" y="1283" type="line"/>
      <point x="706" y="1029" type="line"/>
      <point x="706" y="1029" type="line"/>
      <point x="451" y="871" type="line"/>
      <point x="451" y="872" type="line"/>
      <point x="197" y="872" type="line"/>
      <point x="197" y="396" type="line"/>
      <point x="451" y="554" type="line"/>
      <point x="451" y="775" type="line"/>
      <point x="706" y="775" type="line"/>
      <point x="960" y="1005" type="line"/>
      <point x="960" y="1284" type="line"/>
    </contour>
  </outline>
</glyph>
<glyph name="at" format="1">
  <advance width="1766"/>
  <unicode hex="0040"/>
  <outline>
    <contour>
      <point x="1400" y="1399" type="line"/>
      <point x="400" y="1399" type="line"/>
      <point x="155" y="1178" type="line"/>
      <point x="155" y="221" type="line"/>
      <point x="400" y="0" type="line"/>
      <point x="1256" y="0" type="line"/>
      <point x="1256" y="92" type="line"/>
      <point x="644" y="92" type="line"/>
      <point x="400" y="245" type="line"/>
      <point x="400" y="1154" type="line"/>
      <point x="522" y="1276" type="line"/>
      <point x="644" y="1306" type="line"/>
      <point x="1132" y="1306" type="line"/>
      <point x="1254" y="1276" type="line"/>
      <point x="1377" y="1154" type="line"/>
      <point x="1377" y="316" type="line"/>
      <point x="1254" y="346" type="line"/>
      <point x="1254" y="712" type="line"/>
      <point x="1254" y="712" type="line"/>
      <point x="1254" y="957" type="line"/>
      <point x="1033" y="1201" type="line"/>
      <point x="742" y="1201" type="line"/>
      <point x="521" y="957" type="line"/>
      <point x="521" y="957" type="line"/>
      <point x="521" y="468" type="line"/>
      <point x="742" y="223" type="line"/>
      <point x="1033" y="223" type="line"/>
      <point x="1132" y="332" type="line"/>
      <point x="1231" y="223" type="line"/>
      <point x="1469" y="223" type="line"/>
      <point x="1621" y="468" type="line"/>
      <point x="1621" y="468" type="line"/>
      <point x="1621" y="1154" type="line"/>
    </contour>
    <contour>
      <point x="765" y="468" type="line"/>
      <point x="765" y="1109" type="line"/>
      <point x="887" y="1079" type="line"/>
      <point x="1010" y="956" type="line"/>
      <point x="1010" y="712" type="line"/>
      <point x="1010" y="712" type="line"/>
      <point x="1010" y="468" type="line"/>
      <point x="1010" y="468" type="line"/>
      <point x="1010" y="316" type="line"/>
    </contour>
  </outline>
</glyph>
<glyph name="A" format="1">
  <advance width="1172"/>
  <unicode hex="0041"/>
  <outline>
    <contour>
      <point x="367" y="1399" type="line"/>
      <point x="367" y="1399" type="line"/>
      <point x="113" y="1169" type="line"/>
      <point x="113" y="0" type="line"/>
      <point x="367" y="0" type="line"/>
      <point x="367" y="509" type="line"/>
      <point x="749" y="509" type="line"/>
      <point x="749" y="0" type="line"/>
      <point x="1003" y="0" type="line"/>
      <point x="1003" y="1144" type="line"/>
      <point x="773" y="1399" type="line"/>
    </contour>
    <contour>
      <point x="367" y="763" type="line"/>
      <point x="367" y="1303" type="line"/>
      <point x="494" y="1303" type="line"/>
      <point x="494" y="1303" type="line"/>
      <point x="622" y="1272" type="line"/>
      <point x="749" y="1144" type="line"/>
      <point x="749" y="605" type="line"/>
      <point x="622" y="605" type="line"/>
    </contour>
  </outline>
</glyph>
<glyph name="B" format="1">
  <advance width="1188"/>
  <unicode hex="0042"/>
  <outline>
    <contour>
      <point x="120" y="1401" type="line"/>
      <point x="120" y="0" type="line"/>
      <point x="826" y="0" type="line"/>
      <point x="1079" y="228" type="line"/>
      <point x="1079" y="496" type="line"/>
      <point x="866" y="732" type="line"/>
      <point x="1013" y="893" type="line"/>
      <point x="1013" y="1147" type="line"/>
      <point x="782" y="1401" type="line"/>
    </contour>
    <contour>
      <point x="385" y="1331" type="line"/>
      <point x="510" y="1331" type="line"/>
      <point x="638" y="1301" type="line"/>
      <point x="767" y="1173" type="line"/>
      <point x="767" y="776" type="line"/>
      <point x="385" y="776" type="line"/>
    </contour>
    <contour>
      <point x="396" y="254" type="line"/>
      <point x="396" y="654" type="line"/>
      <point x="591" y="654" type="line"/>
      <point x="719" y="625" type="line"/>
      <point x="844" y="496" type="line"/>
      <point x="844" y="96" type="line"/>
      <point x="649" y="96" type="line"/>
    </contour>
  </outline>
</glyph>
<glyph name="C" format="1">
  <advance width="1017"/>
  <unicode hex="0043"/>
  <outline>
    <contour>
      <point x="337" y="1400" type="line"/>
      <point x="107" y="1145" type="line"/>
      <point x="107" y="255" type="line"/>
      <point x="337" y="0" type="line"/>
      <point x="680" y="0" type="line"/>
      <point x="680" y="0" type="line"/>
      <point x="680" y="1" type="line"/>
      <point x="934" y="197" type="line"/>
      <point x="934" y="297" type="line"/>
      <point x="680" y="297" type="line"/>
      <point x="616" y="96" type="line"/>
      <point x="362" y="255" type="line"/>
      <point x="362" y="1304" type="line"/>
      <point x="489" y="1304" type="line"/>
      <point x="489" y="1304" type="line"/>
      <point x="616" y="1272" type="line"/>
      <point x="743" y="1145" type="line"/>
      <point x="743" y="1145" type="line"/>
      <point x="934" y="1145" type="line"/>
      <point x="934" y="1272" type="line"/>
      <point x="768" y="1400" type="line"/>
    </contour>
  </outline>
</glyph>
<glyph name="D" format="1">
  <advance width="1160"/>
  <unicode hex="0044"/>
  <outline>
    <contour>
      <point x="120" y="1400" type="line"/>
      <point x="120" y="0" type="line"/>
      <point x="749" y="0" type="line"/>
      <point x="1001" y="230" type="line"/>
      <point x="1004" y="230" type="line"/>
      <point x="1004" y="1147" type="line"/>
      <point x="774" y="1400" type="line"/>
    </contour>
    <contour>
      <point x="357" y="278" type="line"/>
      <point x="357" y="1327" type="line"/>
      <point x="478" y="1327" type="line"/>
      <point x="606" y="1294" type="line"/>
      <point x="730" y="1166" type="line"/>
      <point x="730" y="121" type="line"/>
      <point x="613" y="121" type="line"/>
    </contour>
  </outline>
</glyph>
<glyph name="E" format="1">
  <advance width="1020"/>
  <unicode hex="0045"/>
  <outline>
    <contour>
      <point x="781" y="1400" type="line"/>
      <point x="120" y="1399" type="line"/>
      <point x="120" y="0" type="line"/>
      <point x="815" y="0" type="line"/>
      <point x="974" y="127" type="line"/>
      <point x="974" y="254" type="line"/>
      <point x="790" y="254" type="line"/>
      <point x="790" y="255" type="line"/>
      <point x="536" y="96" type="line"/>
      <point x="536" y="97" type="line"/>
      <point x="374" y="97" type="line"/>
      <point x="374" y="636" type="line"/>
      <point x="629" y="636" type="line"/>
      <point x="629" y="763" type="line"/>
      <point x="374" y="763" type="line"/>
      <point x="374" y="1303" type="line"/>
      <point x="502" y="1303" type="line"/>
      <point x="502" y="1303" type="line"/>
      <point x="629" y="1272" type="line"/>
      <point x="756" y="1145" type="line"/>
      <point x="756" y="1145" type="line"/>
      <point x="940" y="1145" type="line"/>
      <point x="939" y="1272" type="line"/>
    </contour>
  </outline>
</glyph>
<glyph name="F" format="1">
  <advance width="968"/>
  <unicode hex="0046"/>
  <outline>
    <contour>
      <point x="779" y="1400" type="line"/>
      <point x="118" y="1400" type="line"/>
      <point x="118" y="0" type="line"/>
      <point x="373" y="0" type="line"/>
      <point x="373" y="636" type="line"/>
      <point x="627" y="636" type="line"/>
      <point x="627" y="764" type="line"/>
      <point x="373" y="764" type="line"/>
      <point x="373" y="1304" type="line"/>
      <point x="500" y="1304" type="line"/>
      <point x="500" y="1304" type="line"/>
      <point x="627" y="1273" type="line"/>
      <point x="755" y="1145" type="line"/>
      <point x="755" y="1146" type="line"/>
      <point x="939" y="1146" type="line"/>
      <point x="938" y="1273" type="line"/>
    </contour>
  </outline>
</glyph>
<glyph name="G" format="1">
  <advance width="1115"/>
  <unicode hex="0047"/>
  <outline>
    <contour>
      <point x="337" y="1400" type="line"/>
      <point x="107" y="1146" type="line"/>
      <point x="107" y="255" type="line"/>
      <point x="337" y="0" type="line"/>
      <point x="768" y="0" type="line"/>
      <point x="998" y="255" type="line"/>
      <point x="998" y="764" type="line"/>
      <point x="489" y="764" type="line"/>
      <point x="489" y="668" type="line"/>
      <point x="616" y="636" type="line"/>
      <point x="743" y="509" type="line"/>
      <point x="743" y="97" type="line"/>
      <point x="616" y="97" type="line"/>
      <point x="616" y="96" type="line"/>
      <point x="362" y="255" type="line"/>
      <point x="362" y="1304" type="line"/>
      <point x="489" y="1304" type="line"/>
      <point x="616" y="1273" type="line"/>
      <point x="743" y="1145" type="line"/>
      <point x="743" y="1018" type="line"/>
      <point x="998" y="1018" type="line"/>
      <point x="998" y="1146" type="line"/>
      <point x="768" y="1400" type="line"/>
    </contour>
  </outline>
</glyph>
<glyph name="H" format="1">
  <advance width="1187"/>
  <unicode hex="0048"/>
  <outline>
    <contour>
      <point x="760" y="1400" type="line"/>
      <point x="760" y="764" type="line"/>
      <point x="378" y="764" type="line"/>
      <point x="378" y="1400" type="line"/>
      <point x="123" y="1400" type="line"/>
      <point x="123" y="0" type="line"/>
      <point x="378" y="0" type="line"/>
      <point x="378" y="668" type="line"/>
      <point x="505" y="668" type="line"/>
      <point x="632" y="636" type="line"/>
      <point x="760" y="509" type="line"/>
      <point x="760" y="0" type="line"/>
      <point x="1014" y="0" type="line"/>
      <point x="1014" y="1400" type="line"/>
    </contour>
  </outline>
</glyph>
<glyph name="I" format="1">
  <advance width="551"/>
  <unicode hex="0049"/>
  <outline>
    <contour>
      <point x="123" y="0" type="line"/>
      <point x="378" y="0" type="line"/>
      <point x="378" y="1400" type="line"/>
      <point x="123" y="1400" type="line"/>
    </contour>
  </outline>
</glyph>
<glyph name="J" format="1">
  <advance width="1022"/>
  <unicode hex="004A"/>
  <outline>
    <contour>
      <point x="602" y="1400" type="line"/>
      <point x="602" y="96" type="line"/>
      <point x="475" y="96" type="line"/>
      <point x="340" y="127" type="line"/>
      <point x="213" y="255" type="line"/>
      <point x="213" y="255" type="line"/>
      <point x="29" y="255" type="line"/>
      <point x="30" y="127" type="line"/>
      <point x="188" y="0" type="line"/>
      <point x="626" y="0" type="line"/>
      <point x="856" y="255" type="line"/>
      <point x="856" y="1400" type="line"/>
    </contour>
  </outline>
</glyph>
<glyph name="K" format="1">
  <advance width="1160"/>
  <unicode hex="004B"/>
  <outline>
    <contour>
      <point x="759" y="1401" type="line"/>
      <point x="719" y="723" type="line"/>
      <point x="633" y="723" type="line"/>
      <point x="633" y="724" type="line"/>
      <point x="378" y="883" type="line"/>
      <point x="378" y="1400" type="line"/>
      <point x="123" y="1400" type="line"/>
      <point x="123" y="0" type="line"/>
      <point x="378" y="0" type="line"/>
      <point x="378" y="627" type="line"/>
      <point x="505" y="627" type="line"/>
      <point x="505" y="627" type="line"/>
      <point x="633" y="596" type="line"/>
      <point x="760" y="468" type="line"/>
      <point x="760" y="373" type="line"/>
      <point x="759" y="373" type="line"/>
      <point x="759" y="0" type="line"/>
      <point x="1014" y="0" type="line"/>
      <point x="1014" y="288" type="line"/>
      <point x="1015" y="288" type="line"/>
      <point x="1015" y="524" type="line"/>
      <point x="828" y="694" type="line"/>
      <point x="973" y="925" type="line"/>
      <point x="1014" y="1401" type="line"/>
    </contour>
  </outline>
</glyph>
<glyph name="L" format="1">
  <advance width="963"/>
  <unicode hex="004C"/>
  <outline>
    <contour>
      <point x="378" y="1400" type="line"/>
      <point x="123" y="1400" type="line"/>
      <point x="123" y="0" type="line"/>
      <point x="818" y="0" type="line"/>
      <point x="886" y="127" type="line"/>
      <point x="887" y="255" type="line"/>
      <point x="794" y="255" type="line"/>
      <point x="794" y="255" type="line"/>
      <point x="539" y="96" type="line"/>
      <point x="539" y="97" type="line"/>
      <point x="378" y="97" type="line"/>
    </contour>
  </outline>
</glyph>
<glyph name="M" format="1">
  <advance width="1722"/>
  <unicode hex="004D"/>
  <outline>
    <contour>
      <point x="968" y="1401" type="line"/>
      <point x="838" y="1286" type="line"/>
      <point x="708" y="1401" type="line"/>
      <point x="123" y="1401" type="line"/>
      <point x="123" y="0" type="line"/>
      <point x="382" y="0" type="line"/>
      <point x="382" y="1304" type="line"/>
      <point x="449" y="1304" type="line"/>
      <point x="579" y="1275" type="line"/>
      <point x="708" y="1149" type="line"/>
      <point x="708" y="0" type="line"/>
      <point x="968" y="0" type="line"/>
      <point x="968" y="1304" type="line"/>
      <point x="1035" y="1304" type="line"/>
      <point x="1164" y="1275" type="line"/>
      <point x="1294" y="1145" type="line"/>
      <point x="1294" y="0" type="line"/>
      <point x="1553" y="0" type="line"/>
      <point x="1553" y="1171" type="line"/>
      <point x="1294" y="1401" type="line"/>
    </contour>
  </outline>
</glyph>
<glyph name="N" format="1">
  <advance width="1118"/>
  <unicode hex="004E"/>
  <outline>
    <contour>
      <point x="123" y="1401" type="line"/>
      <point x="123" y="0" type="line"/>
      <point x="379" y="0" type="line"/>
      <point x="379" y="1304" type="line"/>
      <point x="441" y="1304" type="line"/>
      <point x="569" y="1273" type="line"/>
      <point x="697" y="1145" type="line"/>
      <point x="697" y="0" type="line"/>
      <point x="950" y="0" type="line"/>
      <point x="950" y="1131" type="line"/>
      <point x="697" y="1401" type="line"/>
    </contour>
  </outline>
</glyph>
<glyph name="O" format="1">
  <advance width="1135"/>
  <unicode hex="004F"/>
  <outline>
    <contour>
      <point x="768" y="1400" type="line"/>
      <point x="337" y="1400" type="line"/>
      <point x="107" y="1145" type="line"/>
      <point x="107" y="764" type="line"/>
      <point x="107" y="764" type="line"/>
      <point x="107" y="255" type="line"/>
      <point x="337" y="0" type="line"/>
      <point x="768" y="0" type="line"/>
      <point x="998" y="255" type="line"/>
      <point x="998" y="1145" type="line"/>
    </contour>
    <contour>
      <point x="362" y="1304" type="line"/>
      <point x="489" y="1304" type="line"/>
      <point x="616" y="1272" type="line"/>
      <point x="743" y="1145" type="line"/>
      <point x="743" y="96" type="line"/>
      <point x="616" y="96" type="line"/>
      <point x="616" y="96" type="line"/>
      <point x="362" y="255" type="line"/>
      <point x="362" y="764" type="line"/>
      <point x="362" y="764" type="line"/>
    </contour>
  </outline>
</glyph>
<glyph name="P" format="1">
  <advance width="1121"/>
  <unicode hex="0050"/>
  <outline>
    <contour>
      <point x="784" y="1400" type="line"/>
      <point x="353" y="1400" type="line"/>
      <point x="148" y="1400" type="line"/>
      <point x="123" y="1400" type="line"/>
      <point x="123" y="0" type="line"/>
      <point x="378" y="0" type="line"/>
      <point x="378" y="509" type="line"/>
      <point x="759" y="509" type="line"/>
      <point x="1014" y="739" type="line"/>
      <point x="1014" y="1145" type="line"/>
    </contour>
    <contour>
      <point x="378" y="764" type="line"/>
      <point x="378" y="1303" type="line"/>
      <point x="505" y="1303" type="line"/>
      <point x="505" y="1304" type="line"/>
      <point x="632" y="1272" type="line"/>
      <point x="759" y="1145" type="line"/>
      <point x="759" y="605" type="line"/>
      <point x="632" y="605" type="line"/>
      <point x="632" y="605" type="line"/>
    </contour>
  </outline>
</glyph>
<glyph name="Q" format="1">
  <advance width="1140"/>
  <unicode hex="0051"/>
  <outline>
    <contour>
      <point x="768" y="1400" type="line"/>
      <point x="337" y="1400" type="line"/>
      <point x="107" y="1146" type="line"/>
      <point x="107" y="764" type="line"/>
      <point x="107" y="764" type="line"/>
      <point x="107" y="255" type="line"/>
      <point x="337" y="0" type="line"/>
      <point x="998" y="0" type="line"/>
      <point x="998" y="25" type="line"/>
      <point x="884" y="128" type="line"/>
      <point x="998" y="255" type="line"/>
      <point x="998" y="255" type="line"/>
      <point x="998" y="1146" type="line"/>
      <point x="998" y="1146" type="line"/>
    </contour>
    <contour>
      <point x="362" y="1304" type="line"/>
      <point x="489" y="1304" type="line"/>
      <point x="616" y="1273" type="line"/>
      <point x="744" y="1145" type="line"/>
      <point x="744" y="96" type="line"/>
      <point x="616" y="96" type="line"/>
      <point x="616" y="96" type="line"/>
      <point x="362" y="255" type="line"/>
      <point x="362" y="764" type="line"/>
      <point x="362" y="764" type="line"/>
    </contour>
  </outline>
</glyph>
<glyph name="R" format="1">
  <advance width="1165"/>
  <unicode hex="0052"/>
  <outline>
    <contour>
      <point x="784" y="1400" type="line"/>
      <point x="353" y="1400" type="line"/>
      <point x="148" y="1400" type="line"/>
      <point x="123" y="1400" type="line"/>
      <point x="123" y="0" type="line"/>
      <point x="378" y="0" type="line"/>
      <point x="378" y="509" type="line"/>
      <point x="759" y="509" type="line"/>
      <point x="760" y="509" type="line"/>
      <point x="760" y="0" type="line"/>
      <point x="1014" y="0" type="line"/>
      <point x="1014" y="382" type="line"/>
      <point x="1014" y="382" type="line"/>
      <point x="1014" y="406" type="line"/>
      <point x="830" y="573" type="line"/>
      <point x="1014" y="739" type="line"/>
      <point x="1014" y="764" type="line"/>
      <point x="1014" y="764" type="line"/>
      <point x="1014" y="1146" type="line"/>
    </contour>
    <contour>
      <point x="378" y="764" type="line"/>
      <point x="378" y="1304" type="line"/>
      <point x="505" y="1304" type="line"/>
      <point x="505" y="1304" type="line"/>
      <point x="632" y="1273" type="line"/>
      <point x="759" y="1145" type="line"/>
      <point x="759" y="606" type="line"/>
      <point x="632" y="606" type="line"/>
      <point x="632" y="605" type="line"/>
    </contour>
  </outline>
</glyph>
<glyph name="S" format="1">
  <advance width="1063"/>
  <unicode hex="0053"/>
  <outline>
    <contour>
      <point x="956" y="575" type="line"/>
      <point x="869" y="671" type="line"/>
      <point x="741" y="799" type="line"/>
      <point x="572" y="830" type="line"/>
      <point x="445" y="861" type="line"/>
      <point x="318" y="989" type="line"/>
      <point x="318" y="1303" type="line"/>
      <point x="450" y="1303" type="line"/>
      <point x="450" y="1303" type="line"/>
      <point x="577" y="1272" type="line"/>
      <point x="705" y="1144" type="line"/>
      <point x="705" y="1144" type="line"/>
      <point x="890" y="1144" type="line"/>
      <point x="889" y="1272" type="line"/>
      <point x="730" y="1400" type="line"/>
      <point x="221" y="1400" type="line"/>
      <point x="62" y="1144" type="line"/>
      <point x="62" y="1144" type="line"/>
      <point x="62" y="830" type="line"/>
      <point x="275" y="606" type="line"/>
      <point x="405" y="575" type="line"/>
      <point x="573" y="545" type="line"/>
      <point x="701" y="417" type="line"/>
      <point x="701" y="97" type="line"/>
      <point x="569" y="97" type="line"/>
      <point x="569" y="97" type="line"/>
      <point x="313" y="256" type="line"/>
      <point x="313" y="255" type="line"/>
      <point x="129" y="255" type="line"/>
      <point x="129" y="128" type="line"/>
      <point x="289" y="0" type="line"/>
      <point x="797" y="0" type="line"/>
      <point x="956" y="255" type="line"/>
      <point x="956" y="255" type="line"/>
    </contour>
  </outline>
</glyph>
<glyph name="T" format="1">
  <advance width="1061"/>
  <unicode hex="0054"/>
  <outline>
    <contour>
      <point x="3" y="1400" type="line"/>
      <point x="3" y="1145" type="line"/>
      <point x="130" y="1145" type="line"/>
      <point x="258" y="1273" type="line"/>
      <point x="385" y="1273" type="line"/>
      <point x="385" y="0" type="line"/>
      <point x="639" y="0" type="line"/>
      <point x="639" y="1273" type="line"/>
      <point x="767" y="1273" type="line"/>
      <point x="894" y="1145" type="line"/>
      <point x="1021" y="1145" type="line"/>
      <point x="1021" y="1146" type="line"/>
      <point x="1021" y="1400" type="line"/>
    </contour>
  </outline>
</glyph>
<glyph name="U" format="1">
  <advance width="1161"/>
  <unicode hex="0055"/>
  <outline>
    <contour>
      <point x="753" y="1400" type="line"/>
      <point x="753" y="96" type="line"/>
      <point x="626" y="96" type="line"/>
      <point x="626" y="96" type="line"/>
      <point x="372" y="255" type="line"/>
      <point x="372" y="1400" type="line"/>
      <point x="117" y="1400" type="line"/>
      <point x="117" y="255" type="line"/>
      <point x="347" y="0" type="line"/>
      <point x="778" y="0" type="line"/>
      <point x="983" y="0" type="line"/>
      <point x="1008" y="0" type="line"/>
      <point x="1008" y="1400" type="line"/>
    </contour>
  </outline>
</glyph>
<glyph name="V" format="1">
  <advance width="1060"/>
  <unicode hex="0056"/>
  <outline>
    <contour>
      <point x="713" y="1400" type="line"/>
      <point x="629" y="212" type="line"/>
      <point x="416" y="339" type="line"/>
      <point x="331" y="1400" type="line"/>
      <point x="77" y="1400" type="line"/>
      <point x="119" y="636" type="line"/>
      <point x="368" y="0" type="line"/>
      <point x="671" y="0" type="line"/>
      <point x="923" y="636" type="line"/>
      <point x="968" y="1400" type="line"/>
    </contour>
  </outline>
</glyph>
<glyph name="W" format="1">
  <advance width="1763"/>
  <unicode hex="0057"/>
  <outline>
    <contour>
      <point x="99" y="1400" type="line"/>
      <point x="99" y="652" type="line"/>
      <point x="329" y="2" type="line"/>
      <point x="759" y="2" type="line"/>
      <point x="862" y="285" type="line"/>
      <point x="965" y="0" type="line"/>
      <point x="1395" y="0" type="line"/>
      <point x="1625" y="653" type="line"/>
      <point x="1625" y="1400" type="line"/>
      <point x="1371" y="1400" type="line"/>
      <point x="1330" y="96" type="line"/>
      <point x="1032" y="255" type="line"/>
      <point x="989" y="647" type="line"/>
      <point x="989" y="1400" type="line"/>
      <point x="735" y="1400" type="line"/>
      <point x="735" y="647" type="line"/>
      <point x="692" y="98" type="line"/>
      <point x="396" y="256" type="line"/>
      <point x="353" y="1400" type="line"/>
    </contour>
  </outline>
</glyph>
<glyph name="X" format="1">
  <advance width="1095"/>
  <unicode hex="0058"/>
  <outline>
    <contour>
      <point x="699" y="702" type="line"/>
      <point x="955" y="1018" type="line"/>
      <point x="977" y="1400" type="line"/>
      <point x="723" y="1400" type="line"/>
      <point x="723" y="1145" type="line"/>
      <point x="631" y="828" type="line"/>
      <point x="505" y="859" type="line"/>
      <point x="441.5" y="922.5" name="inserted"/>
      <point x="378.5" y="986.0"/>
      <point x="379" y="986" type="qcurve"/>
      <point x="341" y="1145" type="line"/>
      <point x="341" y="1400" type="line"/>
      <point x="87" y="1400" type="line"/>
      <point x="108" y="1018" type="line"/>
      <point x="363" y="702" type="line"/>
      <point x="108" y="382" type="line"/>
      <point x="87" y="1" type="line"/>
      <point x="341" y="1" type="line"/>
      <point x="341" y="255" type="line"/>
      <point x="434" y="583" type="line"/>
      <point x="562" y="552" type="line"/>
      <point x="616" y="498" type="line"/>
      <point x="689" y="425" type="line"/>
      <point x="689" y="425" type="line"/>
      <point x="723" y="255" type="line"/>
      <point x="723" y="0" type="line"/>
      <point x="977" y="0" type="line"/>
      <point x="956" y="382" type="line"/>
    </contour>
  </outline>
</glyph>
<glyph name="Y" format="1">
  <advance width="1043"/>
  <unicode hex="0059"/>
  <outline>
    <contour>
      <point x="978" y="1400" type="line"/>
      <point x="716" y="1400" type="line"/>
      <point x="716" y="943" type="line"/>
      <point x="673" y="626" type="line"/>
      <point x="492" y="657" type="line"/>
      <point x="427.0" y="720.5" name="inserted"/>
      <point x="362.0" y="784.0"/>
      <point x="362" y="784" type="qcurve"/>
      <point x="324" y="943" type="line"/>
      <point x="324" y="1400" type="line"/>
      <point x="62" y="1400" type="line"/>
      <point x="83" y="816" type="line"/>
      <point x="389" y="499" type="line"/>
      <point x="389" y="0" type="line"/>
      <point x="656" y="0" type="line"/>
      <point x="656" y="504" type="line"/>
      <point x="956" y="816" type="line"/>
    </contour>
  </outline>
</glyph>
<glyph name="Z" format="1">
  <advance width="1015"/>
  <unicode hex="005A"/>
  <outline>
    <contour>
      <point x="50" y="1400" type="line"/>
      <point x="50" y="1145" type="line"/>
      <point x="177" y="1145" type="line"/>
      <point x="177" y="1145" type="line"/>
      <point x="305" y="1273" type="line"/>
      <point x="306" y="1273" type="line"/>
      <point x="655" y="1273" type="line"/>
      <point x="50" y="127" type="line"/>
      <point x="50" y="0" type="line"/>
      <point x="941" y="0" type="line"/>
      <point x="941" y="255" type="line"/>
      <point x="814" y="255" type="line"/>
      <point x="686" y="128" type="line"/>
      <point x="685" y="127" type="line"/>
      <point x="335" y="127" type="line"/>
      <point x="941" y="1273" type="line"/>
      <point x="941" y="1400" type="line"/>
    </contour>
  </outline>
</glyph>
<glyph name="underscore" format="1">
  <advance width="1840"/>
  <unicode hex="005F"/>
  <outline>
    <contour>
      <point x="83" y="-2" type="line"/>
      <point x="83" y="-188" type="line"/>
      <point x="151" y="-259" type="line"/>
      <point x="1756" y="-259" type="line"/>
      <point x="1756" y="-2" type="line"/>
    </contour>
  </outline>
</glyph>
<glyph name="a" format="1">
  <advance width="994"/>
  <unicode hex="0061"/>
  <outline>
    <contour>
      <point x="341" y="1024" type="line"/>
      <point x="341" y="1023" type="line"/>
      <point x="341" y="1024" type="line"/>
      <point x="170" y="930" type="line"/>
      <point x="170" y="827" type="line"/>
      <point x="246" y="827" type="line"/>
      <point x="418" y="879" type="line"/>
      <point x="597" y="768" type="line"/>
      <point x="597" y="640" type="line"/>
      <point x="341" y="640" type="line"/>
      <point x="341" y="640" type="line"/>
      <point x="316" y="640" type="line"/>
      <point x="85" y="384" type="line"/>
      <point x="85" y="256" type="line"/>
      <point x="316" y="0" type="line"/>
      <point x="621" y="0" type="line"/>
      <point x="725" y="114" type="line"/>
      <point x="828" y="0" type="line"/>
      <point x="853" y="0" type="line"/>
      <point x="853" y="768" type="line"/>
      <point x="852" y="768" type="line"/>
      <point x="853" y="768" type="line"/>
      <point x="621" y="1024" type="line"/>
      <point x="597" y="1024" type="line"/>
      <point x="597" y="1024" type="line"/>
    </contour>
    <contour>
      <point x="379" y="536" type="line"/>
      <point x="380" y="536" type="line"/>
      <point x="379" y="536" type="line"/>
    </contour>
    <contour>
      <point x="341" y="256" type="line"/>
      <point x="341" y="543" type="line"/>
      <point x="469" y="512" type="line"/>
      <point x="597" y="384" type="line"/>
      <point x="597" y="97" type="line"/>
    </contour>
    <contour>
      <point x="201" y="179" type="line"/>
      <point x="201" y="179" type="line"/>
      <point x="200" y="179" type="line"/>
    </contour>
  </outline>
</glyph>
<glyph name="b" format="1">
  <advance width="1073"/>
  <unicode hex="0062"/>
  <outline>
    <contour>
      <point x="172" y="1540" type="line"/>
      <point x="172" y="0" type="line"/>
      <point x="197" y="0" type="line"/>
      <point x="300" y="115" type="line"/>
      <point x="404" y="0" type="line"/>
      <point x="710" y="0" type="line"/>
      <point x="942" y="257" type="line"/>
      <point x="942" y="770" type="line"/>
      <point x="710" y="1026" type="line"/>
      <point x="429" y="1026" type="line"/>
      <point x="429" y="1540" type="line"/>
    </contour>
    <contour>
      <point x="429" y="257" type="line"/>
      <point x="429" y="929" type="line"/>
      <point x="557" y="898" type="line"/>
      <point x="685" y="769" type="line"/>
      <point x="685" y="97" type="line"/>
    </contour>
  </outline>
</glyph>
<glyph name="c" format="1">
  <advance width="938"/>
  <unicode hex="0063"/>
  <outline>
    <contour>
      <point x="392" y="1024" type="line"/>
      <point x="136" y="793" type="line"/>
      <point x="136" y="257" type="line"/>
      <point x="368" y="0" type="line"/>
      <point x="649" y="0" type="line"/>
      <point x="840" y="105" type="line"/>
      <point x="840" y="197" type="line"/>
      <point x="743" y="197" type="line"/>
      <point x="571" y="145" type="line"/>
      <point x="392" y="257" type="line"/>
      <point x="392" y="929" type="line"/>
      <point x="527" y="896" type="line"/>
      <point x="655" y="768" type="line"/>
      <point x="655" y="768" type="line"/>
      <point x="840" y="768" type="line"/>
      <point x="840" y="896" type="line"/>
      <point x="680" y="1024" type="line"/>
    </contour>
  </outline>
</glyph>
<glyph name="d" format="1">
  <advance width="1060"/>
  <unicode hex="0064"/>
  <outline>
    <contour>
      <point x="645" y="1543" type="line"/>
      <point x="645" y="1029" type="line"/>
      <point x="363" y="1029" type="line"/>
      <point x="131" y="771" type="line"/>
      <point x="131" y="257" type="line"/>
      <point x="363" y="0" type="line"/>
      <point x="388" y="0" type="line"/>
      <point x="388" y="0" type="line"/>
      <point x="645" y="0" type="line"/>
      <point x="645" y="0" type="line"/>
      <point x="670" y="0" type="line"/>
      <point x="774" y="115" type="line"/>
      <point x="877" y="0" type="line"/>
      <point x="902" y="0" type="line"/>
      <point x="902" y="1543" type="line"/>
    </contour>
    <contour>
      <point x="388" y="931" type="line"/>
      <point x="517" y="900" type="line"/>
      <point x="645" y="771" type="line"/>
      <point x="645" y="97" type="line"/>
      <point x="388" y="257" type="line"/>
    </contour>
  </outline>
</glyph>
<glyph name="e" format="1">
  <advance width="975"/>
  <unicode hex="0065"/>
  <outline>
    <contour>
      <point x="363" y="1024" type="line"/>
      <point x="131" y="768" type="line"/>
      <point x="131" y="256" type="line"/>
      <point x="363" y="0" type="line"/>
      <point x="643" y="0" type="line"/>
      <point x="643" y="0" type="line"/>
      <point x="835" y="104" type="line"/>
      <point x="835" y="197" type="line"/>
      <point x="738" y="197" type="line"/>
      <point x="566" y="145" type="line"/>
      <point x="387" y="256" type="line"/>
      <point x="387" y="256" type="line"/>
      <point x="384" y="256" type="line"/>
      <point x="387" y="256" type="line"/>
      <point x="387" y="384" type="line"/>
      <point x="667" y="384" type="line"/>
      <point x="899" y="640" type="line"/>
      <point x="899" y="768" type="line"/>
      <point x="668" y="1024" type="line"/>
    </contour>
    <contour>
      <point x="387" y="927" type="line"/>
      <point x="515" y="896" type="line"/>
      <point x="643" y="768" type="line"/>
      <point x="643" y="640" type="line"/>
      <point x="515" y="512" type="line"/>
      <point x="387" y="481" type="line"/>
    </contour>
  </outline>
</glyph>
<glyph name="f" format="1">
  <advance width="737"/>
  <unicode hex="0066"/>
  <outline>
    <contour>
      <point x="738" y="1540" type="line"/>
      <point x="432" y="1540" type="line"/>
      <point x="200" y="1283" type="line"/>
      <point x="200" y="1026" type="line"/>
      <point x="72" y="1026" type="line"/>
      <point x="72" y="926" type="line"/>
      <point x="200" y="926" type="line"/>
      <point x="200" y="0" type="line"/>
      <point x="457" y="0" type="line"/>
      <point x="457" y="926" type="line"/>
      <point x="714" y="926" type="line"/>
      <point x="714" y="1026" type="line"/>
      <point x="457" y="1026" type="line"/>
      <point x="457" y="1443" type="line"/>
      <point x="585" y="1411" type="line"/>
      <point x="714" y="1283" type="line"/>
      <point x="899" y="1283" type="line"/>
      <point x="899" y="1411" type="line"/>
    </contour>
  </outline>
</glyph>
<glyph name="g" format="1">
  <advance width="1011"/>
  <unicode hex="0067"/>
  <outline>
    <contour>
      <point x="354" y="1024" type="line"/>
      <point x="123" y="768" type="line"/>
      <point x="123" y="512" type="line"/>
      <point x="273" y="346" type="line"/>
      <point x="251" y="256" type="line"/>
      <point x="123" y="128" type="line"/>
      <point x="123" y="128" type="line"/>
      <point x="123" y="31" type="line"/>
      <point x="379" y="-128" type="line"/>
      <point x="379" y="-128" type="line"/>
      <point x="635" y="-128" type="line"/>
      <point x="635" y="-415" type="line"/>
      <point x="379" y="-256" type="line"/>
      <point x="379" y="-256" type="line"/>
      <point x="194" y="-256" type="line"/>
      <point x="195" y="-384" type="line"/>
      <point x="355" y="-512" type="line"/>
      <point x="635" y="-512" type="line"/>
      <point x="891" y="-353" type="line"/>
      <point x="891" y="-31" type="line"/>
      <point x="635" y="128" type="line"/>
      <point x="635" y="128" type="line"/>
      <point x="379" y="128" type="line"/>
      <point x="379" y="257" type="line"/>
      <point x="660" y="257" type="line"/>
      <point x="891" y="512" type="line"/>
      <point x="891" y="513" type="line"/>
      <point x="891" y="768" type="line"/>
      <point x="776" y="896" type="line"/>
      <point x="891" y="1000" type="line"/>
      <point x="891" y="1024" type="line"/>
    </contour>
    <contour>
      <point x="379" y="928" type="line"/>
      <point x="507" y="896" type="line"/>
      <point x="635" y="768" type="line"/>
      <point x="635" y="513" type="line"/>
      <point x="635" y="512" type="line"/>
      <point x="635" y="353" type="line"/>
      <point x="379" y="513" type="line"/>
      <point x="379" y="768" type="line"/>
      <point x="379" y="768" type="line"/>
    </contour>
  </outline>
</glyph>
<glyph name="h" format="1">
  <advance width="1067"/>
  <unicode hex="0068"/>
  <outline>
    <contour>
      <point x="172" y="1540" type="line"/>
      <point x="172" y="0" type="line"/>
      <point x="429" y="0" type="line"/>
      <point x="429" y="929" type="line"/>
      <point x="557" y="898" type="line"/>
      <point x="685" y="769" type="line"/>
      <point x="685" y="0" type="line"/>
      <point x="942" y="0" type="line"/>
      <point x="942" y="770" type="line"/>
      <point x="710" y="1026" type="line"/>
      <point x="429" y="1026" type="line"/>
      <point x="429" y="1540" type="line"/>
    </contour>
  </outline>
</glyph>
<glyph name="i" format="1">
  <advance width="3143"/>
  <unicode hex="0069"/>
  <outline>
    <contour>
      <point x="161" y="1024" type="line"/>
      <point x="161" y="171" type="line"/>
      <point x="356" y="0" type="line"/>
      <point x="2992" y="0" type="line"/>
      <point x="2992" y="853" type="line"/>
      <point x="2785" y="1024" type="line"/>
    </contour>
    <contour>
      <point x="1576" y="1440" type="line"/>
      <point x="1397" y="1259" type="line"/>
      <point x="1576" y="1080" type="line"/>
      <point x="1757" y="1259" type="line"/>
    </contour>
  </outline>
</glyph>
<glyph name="j" format="1">
  <advance width="610"/>
  <unicode hex="006A"/>
  <outline>
    <contour>
      <point x="333" y="1440" type="line"/>
      <point x="154" y="1259" type="line"/>
      <point x="333" y="1080" type="line"/>
      <point x="514" y="1259" type="line"/>
    </contour>
    <contour>
      <point x="207" y="869" type="line"/>
      <point x="207" y="-415" type="line"/>
      <point x="-50" y="-254" type="line"/>
      <point x="-50" y="-255" type="line"/>
      <point x="-236" y="-255" type="line"/>
      <point x="-235" y="-383" type="line"/>
      <point x="-75" y="-512" type="line"/>
      <point x="207" y="-512" type="line"/>
      <point x="464" y="-352" type="line"/>
      <point x="464" y="-2" type="line"/>
      <point x="465" y="-2" type="line"/>
      <point x="465" y="1029" type="line"/>
    </contour>
  </outline>
</glyph>
<glyph name="k" format="1">
  <advance width="1029"/>
  <unicode hex="006B"/>
  <outline>
    <contour>
      <point x="172" y="1540" type="line"/>
      <point x="172" y="0" type="line"/>
      <point x="429" y="0" type="line"/>
      <point x="429" y="416" type="line"/>
      <point x="557" y="385" type="line"/>
      <point x="685" y="256" type="line"/>
      <point x="685" y="0" type="line"/>
      <point x="942" y="0" type="line"/>
      <point x="942" y="257" type="line"/>
      <point x="710" y="513" type="line"/>
      <point x="942" y="770" type="line"/>
      <point x="942" y="795" type="line"/>
      <point x="685" y="1026" type="line"/>
      <point x="429" y="1026" type="line"/>
      <point x="429" y="1540" type="line"/>
    </contour>
    <contour>
      <point x="429" y="929" type="line"/>
      <point x="557" y="898" type="line"/>
      <point x="685" y="769" type="line"/>
      <point x="685" y="513" type="line"/>
      <point x="429" y="513" type="line"/>
    </contour>
  </outline>
</glyph>
<glyph name="l" format="1">
  <advance width="587"/>
  <unicode hex="006C"/>
  <outline>
    <contour>
      <point x="429" y="1540" type="line"/>
      <point x="172" y="1380" type="line"/>
      <point x="172" y="0" type="line"/>
      <point x="429" y="0" type="line"/>
    </contour>
  </outline>
</glyph>
<glyph name="m" format="1">
  <advance width="1587"/>
  <unicode hex="006D"/>
  <outline>
    <contour>
      <point x="395" y="1024" type="line"/>
      <point x="292" y="909" type="line"/>
      <point x="189" y="1024" type="line"/>
      <point x="164" y="1024" type="line"/>
      <point x="164" y="0" type="line"/>
      <point x="420" y="0" type="line"/>
      <point x="420" y="927" type="line"/>
      <point x="548" y="895" type="line"/>
      <point x="676" y="767" type="line"/>
      <point x="676" y="0" type="line"/>
      <point x="932" y="0" type="line"/>
      <point x="932" y="768" type="line"/>
      <point x="932" y="768" type="line"/>
      <point x="932" y="927" type="line"/>
      <point x="1060" y="895" type="line"/>
      <point x="1188" y="767" type="line"/>
      <point x="1188" y="0" type="line"/>
      <point x="1444" y="0" type="line"/>
      <point x="1444" y="768" type="line"/>
      <point x="1213" y="1024" type="line"/>
      <point x="907" y="1024" type="line"/>
      <point x="804" y="909" type="line"/>
      <point x="701" y="1024" type="line"/>
      <point x="420" y="1024" type="line"/>
    </contour>
  </outline>
</glyph>
<glyph name="n" format="1">
  <advance width="1075"/>
  <unicode hex="006E"/>
  <outline>
    <contour>
      <point x="395" y="1024" type="line"/>
      <point x="292" y="910" type="line"/>
      <point x="189" y="1024" type="line"/>
      <point x="164" y="1024" type="line"/>
      <point x="164" y="0" type="line"/>
      <point x="420" y="0" type="line"/>
      <point x="420" y="927" type="line"/>
      <point x="548" y="896" type="line"/>
      <point x="676" y="768" type="line"/>
      <point x="676" y="0" type="line"/>
      <point x="932" y="0" type="line"/>
      <point x="932" y="768" type="line"/>
      <point x="701" y="1024" type="line"/>
      <point x="420" y="1024" type="line"/>
    </contour>
  </outline>
</glyph>
<glyph name="o" format="1">
  <advance width="1010"/>
  <unicode hex="006F"/>
  <outline>
    <contour>
      <point x="669" y="1024" type="line"/>
      <point x="363" y="1024" type="line"/>
      <point x="132" y="768" type="line"/>
      <point x="132" y="256" type="line"/>
      <point x="363" y="0" type="line"/>
      <point x="668" y="0" type="line"/>
      <point x="900" y="256" type="line"/>
      <point x="900" y="768" type="line"/>
    </contour>
    <contour>
      <point x="388" y="256" type="line"/>
      <point x="388" y="927" type="line"/>
      <point x="516" y="895" type="line"/>
      <point x="644" y="767" type="line"/>
      <point x="644" y="97" type="line"/>
    </contour>
  </outline>
</glyph>
<glyph name="p" format="1">
  <advance width="1066"/>
  <unicode hex="0070"/>
  <outline>
    <contour>
      <point x="705" y="1024" type="line"/>
      <point x="399" y="1024" type="line"/>
      <point x="296" y="910" type="line"/>
      <point x="193" y="1024" type="line"/>
      <point x="168" y="1024" type="line"/>
      <point x="168" y="-512" type="line"/>
      <point x="424" y="-512" type="line"/>
      <point x="424" y="0" type="line"/>
      <point x="705" y="0" type="line"/>
      <point x="936" y="256" type="line"/>
      <point x="936" y="512" type="line"/>
      <point x="936" y="512" type="line"/>
      <point x="936" y="768" type="line"/>
    </contour>
    <contour>
      <point x="424" y="256" type="line"/>
      <point x="424" y="766" type="line"/>
      <point x="424" y="766" type="line"/>
      <point x="424" y="925" type="line"/>
      <point x="551" y="894" type="line"/>
      <point x="679" y="766" type="line"/>
      <point x="679" y="511" type="line"/>
      <point x="679" y="511" type="line"/>
      <point x="679" y="97" type="line"/>
    </contour>
  </outline>
</glyph>
<glyph name="q" format="1">
  <advance width="1046"/>
  <unicode hex="0071"/>
  <outline>
    <contour>
      <point x="875" y="1024" type="line"/>
      <point x="772" y="910" type="line"/>
      <point x="669" y="1024" type="line"/>
      <point x="363" y="1024" type="line"/>
      <point x="132" y="768" type="line"/>
      <point x="132" y="768" type="line"/>
      <point x="132" y="256" type="line"/>
      <point x="363" y="0" type="line"/>
      <point x="388" y="0" type="line"/>
      <point x="388" y="0" type="line"/>
      <point x="644" y="0" type="line"/>
      <point x="644" y="-512" type="line"/>
      <point x="900" y="-512" type="line"/>
      <point x="900" y="256" type="line"/>
      <point x="900" y="256" type="line"/>
      <point x="900" y="512" type="line"/>
      <point x="900" y="512" type="line"/>
      <point x="900" y="1024" type="line"/>
    </contour>
    <contour>
      <point x="388" y="256" type="line"/>
      <point x="388" y="768" type="line"/>
      <point x="388" y="768" type="line"/>
      <point x="388" y="927" type="line"/>
      <point x="516" y="896" type="line"/>
      <point x="644" y="768" type="line"/>
      <point x="644" y="512" type="line"/>
      <point x="644" y="512" type="line"/>
      <point x="644" y="256" type="line"/>
      <point x="644" y="256" type="line"/>
      <point x="644" y="97" type="line"/>
    </contour>
  </outline>
</glyph>
<glyph name="r" format="1">
  <advance width="721"/>
  <unicode hex="0072"/>
  <outline>
    <contour>
      <point x="395" y="1024" type="line"/>
      <point x="292" y="910" type="line"/>
      <point x="189" y="1024" type="line"/>
      <point x="164" y="1024" type="line"/>
      <point x="164" y="0" type="line"/>
      <point x="420" y="0" type="line"/>
      <point x="420" y="927" type="line"/>
      <point x="548" y="896" type="line"/>
      <point x="642" y="802" type="line"/>
      <point x="676" y="802" type="line"/>
      <point x="676" y="1024" type="line"/>
    </contour>
  </outline>
</glyph>
<glyph name="s" format="1">
  <advance width="959"/>
  <unicode hex="0073"/>
  <outline>
    <contour>
      <point x="525" y="604" type="line"/>
      <point x="528" y="603" type="line"/>
      <point x="525" y="603" type="line"/>
    </contour>
    <contour>
      <point x="630" y="351" type="line"/>
      <point x="632" y="350" type="line"/>
      <point x="630" y="350" type="line"/>
    </contour>
    <contour>
      <point x="332" y="1024" type="line"/>
      <point x="101" y="767" type="line"/>
      <point x="100" y="767" type="line"/>
      <point x="100" y="535" type="line"/>
      <point x="356" y="425" type="line"/>
      <point x="485" y="394" type="line"/>
      <point x="613" y="265" type="line"/>
      <point x="613" y="98" type="line"/>
      <point x="358" y="257" type="line"/>
      <point x="358" y="257" type="line"/>
      <point x="164" y="257" type="line"/>
      <point x="164" y="128" type="line"/>
      <point x="333" y="0" type="line"/>
      <point x="358" y="0" type="line"/>
      <point x="358" y="0" type="line"/>
      <point x="614" y="0" type="line"/>
      <point x="614" y="0" type="line"/>
      <point x="638" y="0" type="line"/>
      <point x="868" y="254" type="line"/>
      <point x="870" y="254" type="line"/>
      <point x="870" y="321" type="line"/>
      <point x="869" y="471" type="line"/>
      <point x="691" y="521" type="line"/>
      <point x="485" y="577" type="line"/>
      <point x="485" y="577" type="line"/>
      <point x="356" y="706" type="line"/>
      <point x="356" y="927" type="line"/>
      <point x="485" y="895" type="line"/>
      <point x="613" y="767" type="line"/>
      <point x="613" y="767" type="line"/>
      <point x="798" y="767" type="line"/>
      <point x="797" y="895" type="line"/>
      <point x="638" y="1023" type="line"/>
      <point x="613" y="1023" type="line"/>
    </contour>
    <contour>
      <point x="613" y="321" type="line"/>
      <point x="614" y="321" type="line"/>
      <point x="613" y="321" type="line"/>
    </contour>
  </outline>
</glyph>
<glyph name="t" format="1">
  <advance width="723"/>
  <unicode hex="0074"/>
  <outline>
    <contour>
      <point x="459" y="1540" type="line"/>
      <point x="202" y="1380" type="line"/>
      <point x="202" y="1027" type="line"/>
      <point x="74" y="1027" type="line"/>
      <point x="74" y="926" type="line"/>
      <point x="202" y="926" type="line"/>
      <point x="202" y="0" type="line"/>
      <point x="459" y="0" type="line"/>
      <point x="459" y="926" type="line"/>
      <point x="716" y="926" type="line"/>
      <point x="716" y="1027" type="line"/>
      <point x="459" y="1027" type="line"/>
    </contour>
  </outline>
</glyph>
<glyph name="u" format="1">
  <advance width="1083"/>
  <unicode hex="0075"/>
  <outline>
    <contour>
      <point x="669" y="1023" type="line"/>
      <point x="669" y="97" type="line"/>
      <point x="413" y="256" type="line"/>
      <point x="413" y="1023" type="line"/>
      <point x="157" y="1023" type="line"/>
      <point x="157" y="256" type="line"/>
      <point x="388" y="0" type="line"/>
      <point x="693" y="0" type="line"/>
      <point x="797" y="114" type="line"/>
      <point x="900" y="0" type="line"/>
      <point x="925" y="0" type="line"/>
      <point x="925" y="1023" type="line"/>
    </contour>
  </outline>
</glyph>
<glyph name="v" format="1">
  <advance width="976"/>
  <unicode hex="0076"/>
  <outline>
    <contour>
      <point x="631" y="1024" type="line"/>
      <point x="590" y="128" type="line"/>
      <point x="418" y="256" type="line"/>
      <point x="375" y="1024" type="line"/>
      <point x="119" y="1024" type="line"/>
      <point x="162" y="512" type="line"/>
      <point x="375" y="0" type="line"/>
      <point x="631" y="0" type="line"/>
      <point x="846" y="512" type="line"/>
      <point x="887" y="1024" type="line"/>
    </contour>
  </outline>
</glyph>
<glyph name="w" format="1">
  <advance width="1506"/>
  <unicode hex="0077"/>
  <outline>
    <contour>
      <point x="1141" y="1024" type="line"/>
      <point x="1104" y="219" type="line"/>
      <point x="1014" y="129" type="line"/>
      <point x="886" y="257" type="line"/>
      <point x="886" y="1021" type="line"/>
      <point x="631" y="1021" type="line"/>
      <point x="631" y="257" type="line"/>
      <point x="631" y="257" type="line"/>
      <point x="631" y="256" type="line"/>
      <point x="514" y="140" type="line"/>
      <point x="417" y="256" type="line"/>
      <point x="375" y="1023" type="line"/>
      <point x="119" y="1023" type="line"/>
      <point x="162" y="512" type="line"/>
      <point x="375" y="0" type="line"/>
      <point x="375" y="0" type="line"/>
      <point x="655" y="0" type="line"/>
      <point x="760" y="115" type="line"/>
      <point x="886" y="1" type="line"/>
      <point x="886" y="1" type="line"/>
      <point x="1142" y="1" type="line"/>
      <point x="1142" y="3" type="line"/>
      <point x="1356" y="512" type="line"/>
      <point x="1397" y="1024" type="line"/>
    </contour>
  </outline>
</glyph>
<glyph name="x" format="1">
  <advance width="1007"/>
  <unicode hex="0078"/>
  <outline>
    <contour>
      <point x="635" y="1027" type="line"/>
      <point x="635" y="867" type="line"/>
      <point x="593" y="580" type="line"/>
      <point x="421" y="644" type="line"/>
      <point x="379" y="869" type="line"/>
      <point x="379" y="1027" type="line"/>
      <point x="122" y="1027" type="line"/>
      <point x="143" y="770" type="line"/>
      <point x="336" y="513" type="line"/>
      <point x="143" y="257" type="line"/>
      <point x="122" y="0" type="line"/>
      <point x="379" y="0" type="line"/>
      <point x="379" y="162" type="line"/>
      <point x="418" y="440" type="line"/>
      <point x="499" y="420" type="line"/>
      <point x="509" y="416" type="line"/>
      <point x="605" y="319" type="line"/>
      <point x="635" y="165" type="line"/>
      <point x="635" y="0" type="line"/>
      <point x="892" y="0" type="line"/>
      <point x="871" y="257" type="line"/>
      <point x="678" y="513" type="line"/>
      <point x="871" y="770" type="line"/>
      <point x="892" y="1027" type="line"/>
    </contour>
  </outline>
</glyph>
<glyph name="y" format="1">
  <advance width="1028"/>
  <unicode hex="0079"/>
  <outline>
    <contour>
      <point x="631" y="1024" type="line"/>
      <point x="590" y="129" type="line"/>
      <point x="418" y="257" type="line"/>
      <point x="376" y="1024" type="line"/>
      <point x="120" y="1024" type="line"/>
      <point x="163" y="512" type="line"/>
      <point x="376" y="1" type="line"/>
      <point x="585" y="1" type="line"/>
      <point x="567" y="-372" type="line"/>
      <point x="362" y="-213" type="line"/>
      <point x="362" y="-213" type="line"/>
      <point x="177" y="-213" type="line"/>
      <point x="177" y="-341" type="line"/>
      <point x="337" y="-469" type="line"/>
      <point x="567" y="-469" type="line"/>
      <point x="802" y="-310" type="line"/>
      <point x="887" y="1024" type="line"/>
    </contour>
  </outline>
</glyph>
<glyph name="z" format="1">
  <advance width="990"/>
  <unicode hex="007A"/>
  <outline>
    <contour>
      <point x="107" y="1024" type="line"/>
      <point x="107" y="768" type="line"/>
      <point x="143" y="768" type="line"/>
      <point x="277" y="896" type="line"/>
      <point x="278" y="896" type="line"/>
      <point x="576" y="896" type="line"/>
      <point x="107" y="128" type="line"/>
      <point x="107" y="0" type="line"/>
      <point x="860" y="0" type="line"/>
      <point x="860" y="256" type="line"/>
      <point x="827" y="256" type="line"/>
      <point x="690" y="128" type="line"/>
      <point x="391" y="128" type="line"/>
      <point x="860" y="896" type="line"/>
      <point x="860" y="1024" type="line"/>
    </contour>
  </outline>
</glyph>
<glyph name="guillemotleft" format="1">
  <advance width="867"/>
  <unicode hex="00AB"/>
  <outline>
    <contour>
      <point x="47" y="663" type="line"/>
      <point x="47" y="372" type="line"/>
      <point x="309" y="82" type="line"/>
      <point x="337" y="82" type="line"/>
      <point x="337" y="400" type="line"/>
      <point x="207" y="518" type="line"/>
      <point x="337" y="663" type="line"/>
      <point x="337" y="953" type="line"/>
      <point x="310" y="953" type="line"/>
    </contour>
    <contour>
      <point x="514" y="663" type="line"/>
      <point x="514" y="372" type="line"/>
      <point x="776" y="82" type="line"/>
      <point x="805" y="82" type="line"/>
      <point x="805" y="400" type="line"/>
      <point x="673" y="518" type="line"/>
      <point x="805" y="663" type="line"/>
      <point x="805" y="953" type="line"/>
      <point x="776" y="953" type="line"/>
    </contour>
  </outline>
</glyph>
<glyph name="hyphen" format="1">
  <advance width="1096"/>
  <unicode hex="00AD"/>
  <outline>
    <contour>
      <point x="220" y="609" type="line"/>
      <point x="220" y="424" type="line"/>
      <point x="288" y="353" type="line"/>
      <point x="852" y="353" type="line"/>
      <point x="854" y="609" type="line"/>
    </contour>
  </outline>
</glyph>
<glyph name="guillemotright" format="1">
  <advance width="861"/>
  <unicode hex="00BB"/>
  <outline>
    <contour>
      <point x="815" y="350" type="line"/>
      <point x="814" y="641" type="line"/>
      <point x="552" y="930" type="line"/>
      <point x="524" y="930" type="line"/>
      <point x="525" y="612" type="line"/>
      <point x="655" y="494" type="line"/>
      <point x="525" y="349" type="line"/>
      <point x="526" y="59" type="line"/>
      <point x="553" y="59" type="line"/>
    </contour>
    <contour>
      <point x="348" y="349" type="line"/>
      <point x="348" y="640" type="line"/>
      <point x="84" y="929" type="line"/>
      <point x="56" y="929" type="line"/>
      <point x="57" y="611" type="line"/>
      <point x="188" y="493" type="line"/>
      <point x="57" y="348" type="line"/>
      <point x="58" y="58" type="line"/>
      <point x="86" y="58" type="line"/>
    </contour>
  </outline>
</glyph>
<glyph name="Aacute" format="1">
  <advance width="1232"/>
  <unicode hex="00C1"/>
  <outline>
    <contour>
      <point x="442" y="1399" type="line"/>
      <point x="442" y="1399" type="line"/>
      <point x="188" y="1169" type="line"/>
      <point x="188" y="0" type="line"/>
      <point x="442" y="0" type="line"/>
      <point x="442" y="509" type="line"/>
      <point x="824" y="509" type="line"/>
      <point x="824" y="0" type="line"/>
      <point x="1078" y="0" type="line"/>
      <point x="1078" y="1144" type="line"/>
      <point x="848" y="1399" type="line"/>
    </contour>
    <contour>
      <point x="442" y="763" type="line"/>
      <point x="442" y="1303" type="line"/>
      <point x="569" y="1303" type="line"/>
      <point x="569" y="1303" type="line"/>
      <point x="697" y="1272" type="line"/>
      <point x="824" y="1144" type="line"/>
      <point x="824" y="605" type="line"/>
      <point x="697" y="605" type="line"/>
    </contour>
    <contour>
      <point x="739" y="1798" type="line"/>
      <point x="611" y="1670" type="line"/>
      <point x="483" y="1638" type="line"/>
      <point x="483" y="1541" type="line"/>
      <point x="664" y="1541" type="line"/>
      <point x="739" y="1616" type="line"/>
    </contour>
  </outline>
</glyph>
<glyph name="Adieresis" format="1">
  <advance width="1273"/>
  <unicode hex="00C4"/>
  <outline>
    <contour>
      <point x="442" y="1399" type="line"/>
      <point x="442" y="1399" type="line"/>
      <point x="188" y="1169" type="line"/>
      <point x="188" y="0" type="line"/>
      <point x="442" y="0" type="line"/>
      <point x="442" y="509" type="line"/>
      <point x="824" y="509" type="line"/>
      <point x="824" y="0" type="line"/>
      <point x="1078" y="0" type="line"/>
      <point x="1078" y="1144" type="line"/>
      <point x="848" y="1399" type="line"/>
    </contour>
    <contour>
      <point x="442" y="763" type="line"/>
      <point x="442" y="1303" type="line"/>
      <point x="569" y="1303" type="line"/>
      <point x="569" y="1303" type="line"/>
      <point x="697" y="1272" type="line"/>
      <point x="824" y="1144" type="line"/>
      <point x="824" y="605" type="line"/>
      <point x="697" y="605" type="line"/>
    </contour>
    <contour>
      <point x="488" y="1800" type="line"/>
      <point x="371" y="1683" type="line"/>
      <point x="488" y="1565" type="line"/>
      <point x="605" y="1683" type="line"/>
    </contour>
    <contour>
      <point x="776" y="1800" type="line"/>
      <point x="659" y="1683" type="line"/>
      <point x="776" y="1565" type="line"/>
      <point x="893" y="1683" type="line"/>
    </contour>
  </outline>
</glyph>
<glyph name="AE" format="1">
  <advance width="1900"/>
  <unicode hex="00C6"/>
  <outline>
    <contour>
      <point x="493" y="763" type="line"/>
      <point x="493" y="1303" type="line"/>
      <point x="620" y="1303" type="line"/>
      <point x="748" y="1272" type="line"/>
      <point x="875" y="1144" type="line"/>
      <point x="875" y="605" type="line"/>
      <point x="748" y="605" type="line"/>
    </contour>
    <contour>
      <point x="1571" y="0" type="line"/>
      <point x="1730" y="127" type="line"/>
      <point x="1730" y="254" type="line"/>
      <point x="1546" y="254" type="line"/>
      <point x="1546" y="255" type="line"/>
      <point x="1292" y="96" type="line"/>
      <point x="1292" y="97" type="line"/>
      <point x="1130" y="97" type="line"/>
      <point x="1130" y="508" type="line"/>
      <point x="1385" y="508" type="line"/>
      <point x="1385" y="635" type="line"/>
      <point x="1130" y="635" type="line"/>
      <point x="1130" y="1303" type="line"/>
      <point x="1258" y="1303" type="line"/>
      <point x="1385" y="1272" type="line"/>
      <point x="1512" y="1145" type="line"/>
      <point x="1696" y="1145" type="line"/>
      <point x="1695" y="1272" type="line"/>
      <point x="1537" y="1400" type="line"/>
      <point x="876" y="1400" type="line"/>
      <point x="876" y="1399" type="line"/>
      <point x="493" y="1399" type="line"/>
      <point x="239" y="1169" type="line"/>
      <point x="239" y="0" type="line"/>
      <point x="493" y="0" type="line"/>
      <point x="493" y="509" type="line"/>
      <point x="875" y="509" type="line"/>
      <point x="875" y="0" type="line"/>
    </contour>
  </outline>
</glyph>
<glyph name="Ccedilla" format="1">
  <advance width="1013"/>
  <unicode hex="00C7"/>
  <outline>
    <contour>
      <point x="337" y="1400" type="line"/>
      <point x="107" y="1145" type="line"/>
      <point x="107" y="255" type="line"/>
      <point x="337" y="0" type="line"/>
      <point x="680" y="0" type="line"/>
      <point x="680" y="0" type="line"/>
      <point x="680" y="1" type="line"/>
      <point x="934" y="197" type="line"/>
      <point x="934" y="297" type="line"/>
      <point x="680" y="297" type="line"/>
      <point x="616" y="96" type="line"/>
      <point x="362" y="255" type="line"/>
      <point x="362" y="1304" type="line"/>
      <point x="489" y="1304" type="line"/>
      <point x="489" y="1304" type="line"/>
      <point x="616" y="1272" type="line"/>
      <point x="743" y="1145" type="line"/>
      <point x="743" y="1145" type="line"/>
      <point x="934" y="1145" type="line"/>
      <point x="934" y="1272" type="line"/>
      <point x="768" y="1400" type="line"/>
    </contour>
    <contour>
      <point x="426" y="-128" type="line"/>
      <point x="298" y="-159" type="line"/>
      <point x="298" y="-256" type="line"/>
      <point x="479" y="-256" type="line"/>
      <point x="554" y="-181" type="line"/>
      <point x="554" y="0" type="line"/>
    </contour>
  </outline>
</glyph>
<glyph name="Egrave" format="1">
  <advance width="1151"/>
  <unicode hex="00C8"/>
  <outline>
    <contour>
      <point x="831" y="1400" type="line"/>
      <point x="170" y="1400" type="line"/>
      <point x="170" y="0" type="line"/>
      <point x="865" y="0" type="line"/>
      <point x="1024" y="127" type="line"/>
      <point x="1024" y="254" type="line"/>
      <point x="840" y="254" type="line"/>
      <point x="840" y="255" type="line"/>
      <point x="586" y="96" type="line"/>
      <point x="586" y="97" type="line"/>
      <point x="424" y="97" type="line"/>
      <point x="424" y="636" type="line"/>
      <point x="679" y="636" type="line"/>
      <point x="679" y="763" type="line"/>
      <point x="424" y="763" type="line"/>
      <point x="424" y="1303" type="line"/>
      <point x="552" y="1303" type="line"/>
      <point x="552" y="1303" type="line"/>
      <point x="679" y="1272" type="line"/>
      <point x="806" y="1145" type="line"/>
      <point x="806" y="1145" type="line"/>
      <point x="990" y="1145" type="line"/>
      <point x="989" y="1272" type="line"/>
    </contour>
    <contour>
      <point x="410" y="1798" type="line"/>
      <point x="410" y="1616" type="line"/>
      <point x="485" y="1541" type="line"/>
      <point x="667" y="1541" type="line"/>
      <point x="667" y="1638" type="line"/>
      <point x="538" y="1670" type="line"/>
    </contour>
  </outline>
</glyph>
<glyph name="Edieresis" format="1">
  <advance width="1151"/>
  <unicode hex="00CB"/>
  <outline>
    <contour>
      <point x="831" y="1400" type="line"/>
      <point x="170" y="1400" type="line"/>
      <point x="170" y="0" type="line"/>
      <point x="865" y="0" type="line"/>
      <point x="1024" y="127" type="line"/>
      <point x="1024" y="254" type="line"/>
      <point x="840" y="254" type="line"/>
      <point x="840" y="255" type="line"/>
      <point x="586" y="96" type="line"/>
      <point x="586" y="97" type="line"/>
      <point x="424" y="97" type="line"/>
      <point x="424" y="636" type="line"/>
      <point x="679" y="636" type="line"/>
      <point x="679" y="763" type="line"/>
      <point x="424" y="763" type="line"/>
      <point x="424" y="1303" type="line"/>
      <point x="552" y="1303" type="line"/>
      <point x="552" y="1303" type="line"/>
      <point x="679" y="1272" type="line"/>
      <point x="806" y="1145" type="line"/>
      <point x="806" y="1145" type="line"/>
      <point x="990" y="1145" type="line"/>
      <point x="989" y="1272" type="line"/>
    </contour>
    <contour>
      <point x="427" y="1800" type="line"/>
      <point x="310" y="1683" type="line"/>
      <point x="427" y="1565" type="line"/>
      <point x="544" y="1683" type="line"/>
    </contour>
    <contour>
      <point x="715" y="1800" type="line"/>
      <point x="598" y="1683" type="line"/>
      <point x="715" y="1565" type="line"/>
      <point x="832" y="1683" type="line"/>
    </contour>
  </outline>
</glyph>
<glyph name="Igrave" format="1">
  <advance width="563"/>
  <unicode hex="00CC"/>
  <outline>
    <contour>
      <point x="126" y="0" type="line"/>
      <point x="381" y="0" type="line"/>
      <point x="381" y="1400" type="line"/>
      <point x="126" y="1400" type="line"/>
    </contour>
    <contour>
      <point x="124" y="1798" type="line"/>
      <point x="124" y="1616" type="line"/>
      <point x="199" y="1541" type="line"/>
      <point x="381" y="1541" type="line"/>
      <point x="381" y="1638" type="line"/>
      <point x="252" y="1670" type="line"/>
    </contour>
  </outline>
</glyph>
<glyph name="Iacute" format="1">
  <advance width="527"/>
  <unicode hex="00CD"/>
  <outline>
    <contour>
      <point x="126" y="0" type="line"/>
      <point x="381" y="0" type="line"/>
      <point x="381" y="1400" type="line"/>
      <point x="126" y="1400" type="line"/>
    </contour>
    <contour>
      <point x="382" y="1798" type="line"/>
      <point x="254" y="1670" type="line"/>
      <point x="126" y="1638" type="line"/>
      <point x="126" y="1541" type="line"/>
      <point x="307" y="1541" type="line"/>
      <point x="382" y="1616" type="line"/>
    </contour>
  </outline>
</glyph>
<glyph name="Icircumflex" format="1">
  <advance width="600"/>
  <unicode hex="00CE"/>
  <outline>
    <contour>
      <point x="159" y="0" type="line"/>
      <point x="414" y="0" type="line"/>
      <point x="414" y="1400" type="line"/>
      <point x="159" y="1400" type="line"/>
    </contour>
    <contour>
      <point x="286" y="1798" type="line"/>
      <point x="158" y="1669" type="line"/>
      <point x="30" y="1638" type="line"/>
      <point x="30" y="1541" type="line"/>
      <point x="211" y="1541" type="line"/>
      <point x="286" y="1616" type="line"/>
      <point x="361" y="1541" type="line"/>
      <point x="542" y="1541" type="line"/>
      <point x="542" y="1638" type="line"/>
      <point x="414" y="1669" type="line"/>
    </contour>
  </outline>
</glyph>
<glyph name="Idieresis" format="1">
  <advance width="636"/>
  <unicode hex="00CF"/>
  <outline>
    <contour>
      <point x="187" y="0" type="line"/>
      <point x="442" y="0" type="line"/>
      <point x="442" y="1400" type="line"/>
      <point x="187" y="1400" type="line"/>
    </contour>
    <contour>
      <point x="164" y="1800" type="line"/>
      <point x="47" y="1683" type="line"/>
      <point x="164" y="1565" type="line"/>
      <point x="281" y="1683" type="line"/>
    </contour>
    <contour>
      <point x="452" y="1800" type="line"/>
      <point x="335" y="1683" type="line"/>
      <point x="452" y="1565" type="line"/>
      <point x="569" y="1683" type="line"/>
    </contour>
  </outline>
</glyph>
<glyph name="Ograve" format="1">
  <advance width="1143"/>
  <unicode hex="00D2"/>
  <outline>
    <contour>
      <point x="776" y="1400" type="line"/>
      <point x="345" y="1400" type="line"/>
      <point x="115" y="1145" type="line"/>
      <point x="115" y="764" type="line"/>
      <point x="115" y="764" type="line"/>
      <point x="115" y="255" type="line"/>
      <point x="345" y="0" type="line"/>
      <point x="776" y="0" type="line"/>
      <point x="1006" y="255" type="line"/>
      <point x="1006" y="1145" type="line"/>
    </contour>
    <contour>
      <point x="370" y="1304" type="line"/>
      <point x="497" y="1304" type="line"/>
      <point x="624" y="1272" type="line"/>
      <point x="751" y="1145" type="line"/>
      <point x="751" y="96" type="line"/>
      <point x="624" y="96" type="line"/>
      <point x="624" y="96" type="line"/>
      <point x="370" y="255" type="line"/>
      <point x="370" y="764" type="line"/>
      <point x="370" y="764" type="line"/>
    </contour>
    <contour>
      <point x="412" y="1798" type="line"/>
      <point x="412" y="1616" type="line"/>
      <point x="487" y="1541" type="line"/>
      <point x="669" y="1541" type="line"/>
      <point x="669" y="1638" type="line"/>
      <point x="540" y="1670" type="line"/>
    </contour>
  </outline>
</glyph>
<glyph name="Oacute" format="1">
  <advance width="1317"/>
  <unicode hex="00D3"/>
  <outline>
    <contour>
      <point x="816" y="1400" type="line"/>
      <point x="385" y="1400" type="line"/>
      <point x="155" y="1145" type="line"/>
      <point x="155" y="764" type="line"/>
      <point x="155" y="764" type="line"/>
      <point x="155" y="255" type="line"/>
      <point x="385" y="0" type="line"/>
      <point x="816" y="0" type="line"/>
      <point x="1046" y="255" type="line"/>
      <point x="1046" y="1145" type="line"/>
    </contour>
    <contour>
      <point x="410" y="1304" type="line"/>
      <point x="537" y="1304" type="line"/>
      <point x="664" y="1272" type="line"/>
      <point x="791" y="1145" type="line"/>
      <point x="791" y="96" type="line"/>
      <point x="664" y="96" type="line"/>
      <point x="664" y="96" type="line"/>
      <point x="410" y="255" type="line"/>
      <point x="410" y="764" type="line"/>
      <point x="410" y="764" type="line"/>
    </contour>
    <contour>
      <point x="709" y="1798" type="line"/>
      <point x="581" y="1670" type="line"/>
      <point x="453" y="1638" type="line"/>
      <point x="453" y="1541" type="line"/>
      <point x="634" y="1541" type="line"/>
      <point x="709" y="1616" type="line"/>
    </contour>
  </outline>
</glyph>
<glyph name="Ocircumflex" format="1">
  <advance width="1216"/>
  <unicode hex="00D4"/>
  <outline>
    <contour>
      <point x="816" y="1400" type="line"/>
      <point x="385" y="1400" type="line"/>
      <point x="155" y="1145" type="line"/>
      <point x="155" y="764" type="line"/>
      <point x="155" y="764" type="line"/>
      <point x="155" y="255" type="line"/>
      <point x="385" y="0" type="line"/>
      <point x="816" y="0" type="line"/>
      <point x="1046" y="255" type="line"/>
      <point x="1046" y="1145" type="line"/>
    </contour>
    <contour>
      <point x="410" y="1304" type="line"/>
      <point x="537" y="1304" type="line"/>
      <point x="664" y="1272" type="line"/>
      <point x="791" y="1145" type="line"/>
      <point x="791" y="96" type="line"/>
      <point x="664" y="96" type="line"/>
      <point x="664" y="96" type="line"/>
      <point x="410" y="255" type="line"/>
      <point x="410" y="764" type="line"/>
      <point x="410" y="764" type="line"/>
    </contour>
    <contour>
      <point x="577" y="1798" type="line"/>
      <point x="449" y="1669" type="line"/>
      <point x="321" y="1638" type="line"/>
      <point x="321" y="1541" type="line"/>
      <point x="502" y="1541" type="line"/>
      <point x="577" y="1616" type="line"/>
      <point x="652" y="1541" type="line"/>
      <point x="833" y="1541" type="line"/>
      <point x="833" y="1638" type="line"/>
      <point x="705" y="1669" type="line"/>
    </contour>
  </outline>
</glyph>
<glyph name="Odieresis" format="1">
  <advance width="1257"/>
  <unicode hex="00D6"/>
  <outline>
    <contour>
      <point x="861" y="1400" type="line"/>
      <point x="430" y="1400" type="line"/>
      <point x="200" y="1145" type="line"/>
      <point x="200" y="764" type="line"/>
      <point x="200" y="764" type="line"/>
      <point x="200" y="255" type="line"/>
      <point x="430" y="0" type="line"/>
      <point x="861" y="0" type="line"/>
      <point x="1091" y="255" type="line"/>
      <point x="1091" y="1145" type="line"/>
    </contour>
    <contour>
      <point x="455" y="1304" type="line"/>
      <point x="582" y="1304" type="line"/>
      <point x="709" y="1272" type="line"/>
      <point x="836" y="1145" type="line"/>
      <point x="836" y="96" type="line"/>
      <point x="709" y="96" type="line"/>
      <point x="709" y="96" type="line"/>
      <point x="455" y="255" type="line"/>
      <point x="455" y="764" type="line"/>
      <point x="455" y="764" type="line"/>
    </contour>
    <contour>
      <point x="488" y="1800" type="line"/>
      <point x="371" y="1683" type="line"/>
      <point x="488" y="1565" type="line"/>
      <point x="605" y="1683" type="line"/>
    </contour>
    <contour>
      <point x="776" y="1800" type="line"/>
      <point x="659" y="1683" type="line"/>
      <point x="776" y="1565" type="line"/>
      <point x="893" y="1683" type="line"/>
    </contour>
  </outline>
</glyph>
<glyph name="Uacute" format="1">
  <advance width="1167"/>
  <unicode hex="00DA"/>
  <outline>
    <contour>
      <point x="757" y="1400" type="line"/>
      <point x="757" y="96" type="line"/>
      <point x="630" y="96" type="line"/>
      <point x="630" y="96" type="line"/>
      <point x="376" y="255" type="line"/>
      <point x="376" y="1400" type="line"/>
      <point x="121" y="1400" type="line"/>
      <point x="121" y="255" type="line"/>
      <point x="351" y="0" type="line"/>
      <point x="782" y="0" type="line"/>
      <point x="987" y="0" type="line"/>
      <point x="1012" y="0" type="line"/>
      <point x="1012" y="1400" type="line"/>
    </contour>
    <contour>
      <point x="695" y="1798" type="line"/>
      <point x="567" y="1670" type="line"/>
      <point x="439" y="1638" type="line"/>
      <point x="439" y="1541" type="line"/>
      <point x="620" y="1541" type="line"/>
      <point x="695" y="1616" type="line"/>
    </contour>
  </outline>
</glyph>
<glyph name="Ucircumflex" format="1">
  <advance width="1167"/>
  <unicode hex="00DB"/>
  <outline>
    <contour>
      <point x="757" y="1400" type="line"/>
      <point x="757" y="96" type="line"/>
      <point x="630" y="96" type="line"/>
      <point x="630" y="96" type="line"/>
      <point x="376" y="255" type="line"/>
      <point x="376" y="1400" type="line"/>
      <point x="121" y="1400" type="line"/>
      <point x="121" y="255" type="line"/>
      <point x="351" y="0" type="line"/>
      <point x="782" y="0" type="line"/>
      <point x="987" y="0" type="line"/>
      <point x="1012" y="0" type="line"/>
      <point x="1012" y="1400" type="line"/>
    </contour>
    <contour>
      <point x="567" y="1798" type="line"/>
      <point x="439" y="1669" type="line"/>
      <point x="311" y="1638" type="line"/>
      <point x="311" y="1541" type="line"/>
      <point x="492" y="1541" type="line"/>
      <point x="567" y="1616" type="line"/>
      <point x="642" y="1541" type="line"/>
      <point x="823" y="1541" type="line"/>
      <point x="823" y="1638" type="line"/>
      <point x="695" y="1669" type="line"/>
    </contour>
  </outline>
</glyph>
<glyph name="Udieresis" format="1">
  <advance width="1143"/>
  <unicode hex="00DC"/>
  <outline>
    <contour>
      <point x="757" y="1400" type="line"/>
      <point x="757" y="96" type="line"/>
      <point x="630" y="96" type="line"/>
      <point x="630" y="96" type="line"/>
      <point x="376" y="255" type="line"/>
      <point x="376" y="1400" type="line"/>
      <point x="121" y="1400" type="line"/>
      <point x="121" y="255" type="line"/>
      <point x="351" y="0" type="line"/>
      <point x="782" y="0" type="line"/>
      <point x="987" y="0" type="line"/>
      <point x="1012" y="0" type="line"/>
      <point x="1012" y="1400" type="line"/>
    </contour>
    <contour>
      <point x="419" y="1800" type="line"/>
      <point x="302" y="1683" type="line"/>
      <point x="419" y="1565" type="line"/>
      <point x="536" y="1683" type="line"/>
    </contour>
    <contour>
      <point x="707" y="1800" type="line"/>
      <point x="590" y="1683" type="line"/>
      <point x="707" y="1565" type="line"/>
      <point x="824" y="1683" type="line"/>
    </contour>
  </outline>
</glyph>
<glyph name="aacute" format="1">
  <advance width="968"/>
  <unicode hex="00E1"/>
  <outline>
    <contour>
      <point x="343" y="1024" type="line"/>
      <point x="343" y="1023" type="line"/>
      <point x="343" y="1024" type="line"/>
      <point x="172" y="930" type="line"/>
      <point x="172" y="827" type="line"/>
      <point x="248" y="827" type="line"/>
      <point x="420" y="879" type="line"/>
      <point x="599" y="768" type="line"/>
      <point x="599" y="640" type="line"/>
      <point x="343" y="640" type="line"/>
      <point x="343" y="640" type="line"/>
      <point x="318" y="640" type="line"/>
      <point x="87" y="384" type="line"/>
      <point x="87" y="256" type="line"/>
      <point x="318" y="0" type="line"/>
      <point x="623" y="0" type="line"/>
      <point x="727" y="114" type="line"/>
      <point x="830" y="0" type="line"/>
      <point x="855" y="0" type="line"/>
      <point x="855" y="768" type="line"/>
      <point x="854" y="768" type="line"/>
      <point x="855" y="768" type="line"/>
      <point x="623" y="1024" type="line"/>
    </contour>
    <contour>
      <point x="343" y="256" type="line"/>
      <point x="343" y="543" type="line"/>
      <point x="471" y="512" type="line"/>
      <point x="599" y="384" type="line"/>
      <point x="599" y="97" type="line"/>
    </contour>
    <contour>
      <point x="599" y="1441" type="line"/>
      <point x="471" y="1313" type="line"/>
      <point x="343" y="1281" type="line"/>
      <point x="343" y="1184" type="line"/>
      <point x="524" y="1184" type="line"/>
      <point x="599" y="1259" type="line"/>
    </contour>
  </outline>
</glyph>
<glyph name="ae" format="1">
  <advance width="1454"/>
  <unicode hex="00E6"/>
  <outline>
    <contour>
      <point x="343" y="256" type="line"/>
      <point x="343" y="543" type="line"/>
      <point x="471" y="512" type="line"/>
      <point x="599" y="384" type="line"/>
      <point x="599" y="97" type="line"/>
    </contour>
    <contour>
      <point x="856" y="929" type="line"/>
      <point x="984" y="897" type="line"/>
      <point x="1112" y="769" type="line"/>
      <point x="1112" y="641" type="line"/>
      <point x="984" y="513" type="line"/>
      <point x="856" y="481" type="line"/>
    </contour>
    <contour>
      <point x="855" y="385" type="line"/>
      <point x="1136" y="385" type="line"/>
      <point x="1368" y="641" type="line"/>
      <point x="1368" y="769" type="line"/>
      <point x="1137" y="1025" type="line"/>
      <point x="831" y="1025" type="line"/>
      <point x="727" y="910" type="line"/>
      <point x="623" y="1024" type="line"/>
      <point x="343" y="1024" type="line"/>
      <point x="172" y="930" type="line"/>
      <point x="172" y="827" type="line"/>
      <point x="248" y="827" type="line"/>
      <point x="420" y="879" type="line"/>
      <point x="599" y="768" type="line"/>
      <point x="599" y="640" type="line"/>
      <point x="318" y="640" type="line"/>
      <point x="87" y="384" type="line"/>
      <point x="87" y="256" type="line"/>
      <point x="318" y="0" type="line"/>
      <point x="623" y="0" type="line"/>
      <point x="727" y="114" type="line"/>
      <point x="830" y="0" type="line"/>
      <point x="1112" y="0" type="line"/>
      <point x="1304" y="105" type="line"/>
      <point x="1304" y="198" type="line"/>
      <point x="1207" y="197" type="line"/>
      <point x="1034" y="145" type="line"/>
      <point x="855" y="257" type="line"/>
    </contour>
  </outline>
</glyph>
<glyph name="ccedilla" format="1">
  <advance width="905"/>
  <unicode hex="00E7"/>
  <outline>
    <contour>
      <point x="336" y="1024" type="line"/>
      <point x="80" y="793" type="line"/>
      <point x="80" y="257" type="line"/>
      <point x="312" y="0" type="line"/>
      <point x="593" y="0" type="line"/>
      <point x="784" y="105" type="line"/>
      <point x="784" y="197" type="line"/>
      <point x="687" y="197" type="line"/>
      <point x="515" y="145" type="line"/>
      <point x="336" y="257" type="line"/>
      <point x="336" y="929" type="line"/>
      <point x="471" y="896" type="line"/>
      <point x="599" y="768" type="line"/>
      <point x="599" y="768" type="line"/>
      <point x="784" y="768" type="line"/>
      <point x="784" y="896" type="line"/>
      <point x="624" y="1024" type="line"/>
    </contour>
    <contour>
      <point x="402" y="-128" type="line"/>
      <point x="274" y="-159" type="line"/>
      <point x="274" y="-256" type="line"/>
      <point x="455" y="-256" type="line"/>
      <point x="530" y="-181" type="line"/>
      <point x="530" y="0" type="line"/>
    </contour>
  </outline>
</glyph>
<glyph name="egrave" format="1">
  <advance width="946"/>
  <unicode hex="00E8"/>
  <outline>
    <contour>
      <point x="352" y="1441" type="line"/>
      <point x="352" y="1259" type="line"/>
      <point x="427" y="1184" type="line"/>
      <point x="609" y="1184" type="line"/>
      <point x="609" y="1281" type="line"/>
      <point x="480" y="1313" type="line"/>
    </contour>
    <contour>
      <point x="328" y="1025" type="line"/>
      <point x="96" y="769" type="line"/>
      <point x="96" y="257" type="line"/>
      <point x="328" y="0" type="line"/>
      <point x="609" y="0" type="line"/>
      <point x="609" y="0" type="line"/>
      <point x="801" y="105" type="line"/>
      <point x="801" y="198" type="line"/>
      <point x="704" y="197" type="line"/>
      <point x="531" y="145" type="line"/>
      <point x="352" y="257" type="line"/>
      <point x="352" y="256" type="line"/>
      <point x="349" y="256" type="line"/>
      <point x="352" y="257" type="line"/>
      <point x="352" y="385" type="line"/>
      <point x="633" y="385" type="line"/>
      <point x="865" y="641" type="line"/>
      <point x="865" y="769" type="line"/>
      <point x="634" y="1025" type="line"/>
    </contour>
    <contour>
      <point x="353" y="929" type="line"/>
      <point x="481" y="897" type="line"/>
      <point x="609" y="769" type="line"/>
      <point x="609" y="641" type="line"/>
      <point x="481" y="513" type="line"/>
      <point x="353" y="481" type="line"/>
    </contour>
  </outline>
</glyph>
<glyph name="eacute" format="1">
  <advance width="961"/>
  <unicode hex="00E9"/>
  <outline>
    <contour>
      <point x="613" y="1441" type="line"/>
      <point x="485" y="1313" type="line"/>
      <point x="357" y="1281" type="line"/>
      <point x="357" y="1184" type="line"/>
      <point x="538" y="1184" type="line"/>
      <point x="613" y="1259" type="line"/>
    </contour>
    <contour>
      <point x="333" y="1024" type="line"/>
      <point x="101" y="768" type="line"/>
      <point x="101" y="256" type="line"/>
      <point x="333" y="0" type="line"/>
      <point x="613" y="0" type="line"/>
      <point x="613" y="0" type="line"/>
      <point x="805" y="104" type="line"/>
      <point x="805" y="197" type="line"/>
      <point x="708" y="197" type="line"/>
      <point x="536" y="145" type="line"/>
      <point x="357" y="256" type="line"/>
      <point x="357" y="256" type="line"/>
      <point x="354" y="256" type="line"/>
      <point x="357" y="256" type="line"/>
      <point x="357" y="384" type="line"/>
      <point x="637" y="384" type="line"/>
      <point x="869" y="640" type="line"/>
      <point x="869" y="768" type="line"/>
      <point x="638" y="1024" type="line"/>
    </contour>
    <contour>
      <point x="357" y="927" type="line"/>
      <point x="485" y="896" type="line"/>
      <point x="613" y="768" type="line"/>
      <point x="613" y="640" type="line"/>
      <point x="485" y="512" type="line"/>
      <point x="357" y="481" type="line"/>
    </contour>
  </outline>
</glyph>
<glyph name="ecircumflex" format="1">
  <advance width="961"/>
  <unicode hex="00EA"/>
  <outline>
    <contour>
      <point x="488" y="1441" type="line"/>
      <point x="360" y="1312" type="line"/>
      <point x="232" y="1281" type="line"/>
      <point x="232" y="1184" type="line"/>
      <point x="413" y="1184" type="line"/>
      <point x="488" y="1259" type="line"/>
      <point x="563" y="1184" type="line"/>
      <point x="744" y="1184" type="line"/>
      <point x="744" y="1281" type="line"/>
      <point x="616" y="1312" type="line"/>
    </contour>
    <contour>
      <point x="336" y="1024" type="line"/>
      <point x="104" y="768" type="line"/>
      <point x="104" y="256" type="line"/>
      <point x="336" y="0" type="line"/>
      <point x="616" y="0" type="line"/>
      <point x="616" y="0" type="line"/>
      <point x="808" y="104" type="line"/>
      <point x="808" y="197" type="line"/>
      <point x="711" y="197" type="line"/>
      <point x="539" y="145" type="line"/>
      <point x="360" y="256" type="line"/>
      <point x="360" y="384" type="line"/>
      <point x="640" y="384" type="line"/>
      <point x="872" y="640" type="line"/>
      <point x="872" y="768" type="line"/>
      <point x="641" y="1024" type="line"/>
    </contour>
    <contour>
      <point x="360" y="927" type="line"/>
      <point x="488" y="896" type="line"/>
      <point x="616" y="768" type="line"/>
      <point x="616" y="640" type="line"/>
      <point x="488" y="512" type="line"/>
      <point x="360" y="481" type="line"/>
    </contour>
  </outline>
</glyph>
<glyph name="edieresis" format="1">
  <advance width="909"/>
  <unicode hex="00EB"/>
  <outline>
    <contour>
      <point x="295" y="1023" type="line"/>
      <point x="64" y="768" type="line"/>
      <point x="64" y="256" type="line"/>
      <point x="295" y="0" type="line"/>
      <point x="576" y="0" type="line"/>
      <point x="576" y="0" type="line"/>
      <point x="767" y="104" type="line"/>
      <point x="767" y="197" type="line"/>
      <point x="671" y="197" type="line"/>
      <point x="498" y="145" type="line"/>
      <point x="320" y="256" type="line"/>
      <point x="320" y="384" type="line"/>
      <point x="600" y="384" type="line"/>
      <point x="832" y="640" type="line"/>
      <point x="832" y="768" type="line"/>
      <point x="600" y="1023" type="line"/>
    </contour>
    <contour>
      <point x="320" y="927" type="line"/>
      <point x="448" y="896" type="line"/>
      <point x="576" y="768" type="line"/>
      <point x="576" y="640" type="line"/>
      <point x="448" y="512" type="line"/>
      <point x="320" y="481" type="line"/>
    </contour>
    <contour>
      <point x="309" y="1441" type="line"/>
      <point x="192" y="1324" type="line"/>
      <point x="309" y="1206" type="line"/>
      <point x="426" y="1324" type="line"/>
    </contour>
    <contour>
      <point x="597" y="1441" type="line"/>
      <point x="480" y="1324" type="line"/>
      <point x="597" y="1206" type="line"/>
      <point x="714" y="1324" type="line"/>
    </contour>
  </outline>
</glyph>
<glyph name="iacute" format="1">
  <advance width="3065"/>
  <unicode hex="00ED"/>
  <outline>
    <contour>
      <point x="96" y="1024" type="line"/>
      <point x="96" y="171" type="line"/>
      <point x="291" y="0" type="line"/>
      <point x="2927" y="0" type="line"/>
      <point x="2927" y="853" type="line"/>
      <point x="2720" y="1024" type="line"/>
    </contour>
    <contour>
      <point x="1383" y="1441" type="line"/>
      <point x="1383" y="1259" type="line"/>
      <point x="1458" y="1184" type="line"/>
      <point x="1640" y="1184" type="line"/>
      <point x="1640" y="1281" type="line"/>
      <point x="1511" y="1313" type="line"/>
    </contour>
  </outline>
</glyph>
<glyph name="icircumflex" format="1">
  <advance width="3097"/>
  <unicode hex="00EE"/>
  <outline>
    <contour>
      <point x="1551" y="1441" type="line"/>
      <point x="1423" y="1312" type="line"/>
      <point x="1295" y="1281" type="line"/>
      <point x="1295" y="1184" type="line"/>
      <point x="1476" y="1184" type="line"/>
      <point x="1551" y="1259" type="line"/>
      <point x="1625" y="1184" type="line"/>
      <point x="1806" y="1184" type="line"/>
      <point x="1806" y="1281" type="line"/>
      <point x="1678" y="1312" type="line"/>
    </contour>
    <contour>
      <point x="135" y="1024" type="line"/>
      <point x="135" y="171" type="line"/>
      <point x="330" y="0" type="line"/>
      <point x="2966" y="0" type="line"/>
      <point x="2966" y="853" type="line"/>
      <point x="2759" y="1024" type="line"/>
    </contour>
  </outline>
</glyph>
<glyph name="idieresis" format="1">
  <advance width="3105"/>
  <unicode hex="00EF"/>
  <outline>
    <contour>
      <point x="1352" y="1441" type="line"/>
      <point x="1235" y="1324" type="line"/>
      <point x="1352" y="1206" type="line"/>
      <point x="1469" y="1324" type="line"/>
    </contour>
    <contour>
      <point x="1633" y="1441" type="line"/>
      <point x="1516" y="1324" type="line"/>
      <point x="1633" y="1206" type="line"/>
      <point x="1750" y="1324" type="line"/>
    </contour>
    <contour>
      <point x="96" y="1024" type="line"/>
      <point x="96" y="171" type="line"/>
      <point x="291" y="0" type="line"/>
      <point x="2927" y="0" type="line"/>
      <point x="2927" y="853" type="line"/>
      <point x="2720" y="1024" type="line"/>
    </contour>
  </outline>
</glyph>
<glyph name="ograve" format="1">
  <advance width="1010"/>
  <unicode hex="00F2"/>
  <outline>
    <contour>
      <point x="674" y="1024" type="line"/>
      <point x="368" y="1024" type="line"/>
      <point x="137" y="768" type="line"/>
      <point x="137" y="256" type="line"/>
      <point x="368" y="0" type="line"/>
      <point x="673" y="0" type="line"/>
      <point x="905" y="256" type="line"/>
      <point x="905" y="768" type="line"/>
    </contour>
    <contour>
      <point x="393" y="256" type="line"/>
      <point x="393" y="927" type="line"/>
      <point x="521" y="895" type="line"/>
      <point x="649" y="767" type="line"/>
      <point x="649" y="97" type="line"/>
    </contour>
    <contour>
      <point x="393" y="1441" type="line"/>
      <point x="393" y="1259" type="line"/>
      <point x="468" y="1184" type="line"/>
      <point x="649" y="1184" type="line"/>
      <point x="649" y="1281" type="line"/>
      <point x="521" y="1313" type="line"/>
    </contour>
  </outline>
</glyph>
<glyph name="odieresis" format="1">
  <advance width="1010"/>
  <unicode hex="00F6"/>
  <outline>
    <contour>
      <point x="674" y="1024" type="line"/>
      <point x="368" y="1024" type="line"/>
      <point x="137" y="768" type="line"/>
      <point x="137" y="256" type="line"/>
      <point x="368" y="0" type="line"/>
      <point x="673" y="0" type="line"/>
      <point x="905" y="256" type="line"/>
      <point x="905" y="768" type="line"/>
    </contour>
    <contour>
      <point x="393" y="256" type="line"/>
      <point x="393" y="927" type="line"/>
      <point x="521" y="895" type="line"/>
      <point x="649" y="767" type="line"/>
      <point x="649" y="97" type="line"/>
    </contour>
    <contour>
      <point x="356" y="1441" type="line"/>
      <point x="239" y="1324" type="line"/>
      <point x="356" y="1206" type="line"/>
      <point x="473" y="1324" type="line"/>
    </contour>
    <contour>
      <point x="644" y="1441" type="line"/>
      <point x="527" y="1324" type="line"/>
      <point x="644" y="1206" type="line"/>
      <point x="761" y="1324" type="line"/>
    </contour>
  </outline>
</glyph>
<glyph name="ucircumflex" format="1">
  <advance width="1059"/>
  <unicode hex="00FB"/>
  <outline>
    <contour>
      <point x="665" y="1023" type="line"/>
      <point x="665" y="97" type="line"/>
      <point x="409" y="256" type="line"/>
      <point x="409" y="1023" type="line"/>
      <point x="153" y="1023" type="line"/>
      <point x="153" y="256" type="line"/>
      <point x="384" y="0" type="line"/>
      <point x="689" y="0" type="line"/>
      <point x="793" y="114" type="line"/>
      <point x="896" y="0" type="line"/>
      <point x="921" y="0" type="line"/>
      <point x="921" y="1023" type="line"/>
    </contour>
    <contour>
      <point x="537" y="1441" type="line"/>
      <point x="409" y="1312" type="line"/>
      <point x="281" y="1281" type="line"/>
      <point x="281" y="1184" type="line"/>
      <point x="462" y="1184" type="line"/>
      <point x="537" y="1259" type="line"/>
      <point x="612" y="1184" type="line"/>
      <point x="793" y="1184" type="line"/>
      <point x="793" y="1281" type="line"/>
      <point x="665" y="1312" type="line"/>
    </contour>
  </outline>
</glyph>
<glyph name="udieresis" format="1">
  <advance width="1059"/>
  <unicode hex="00FC"/>
  <outline>
    <contour>
      <point x="665" y="1023" type="line"/>
      <point x="665" y="97" type="line"/>
      <point x="409" y="256" type="line"/>
      <point x="409" y="1023" type="line"/>
      <point x="153" y="1023" type="line"/>
      <point x="153" y="256" type="line"/>
      <point x="384" y="0" type="line"/>
      <point x="689" y="0" type="line"/>
      <point x="793" y="114" type="line"/>
      <point x="896" y="0" type="line"/>
      <point x="921" y="0" type="line"/>
      <point x="921" y="1023" type="line"/>
    </contour>
    <contour>
      <point x="388" y="1441" type="line"/>
      <point x="271" y="1324" type="line"/>
      <point x="388" y="1206" type="line"/>
      <point x="505" y="1324" type="line"/>
    </contour>
    <contour>
      <point x="676" y="1441" type="line"/>
      <point x="559" y="1324" type="line"/>
      <point x="676" y="1206" type="line"/>
      <point x="793" y="1324" type="line"/>
    </contour>
  </outline>
</glyph>
<glyph name="dotlessi" format="1">
  <advance width="3143"/>
  <unicode hex="0131"/>
  <outline>
    <contour>
      <point x="161" y="1024" type="line"/>
      <point x="161" y="171" type="line"/>
      <point x="356" y="0" type="line"/>
      <point x="2992" y="0" type="line"/>
      <point x="2992" y="853" type="line"/>
      <point x="2785" y="1024" type="line"/>
    </contour>
  </outline>
</glyph>
<glyph name="OE" format="1">
  <advance width="1723"/>
  <unicode hex="0152"/>
  <outline>
    <contour>
      <point x="793" y="1400" type="line"/>
      <point x="362" y="1400" type="line"/>
      <point x="132" y="1145" type="line"/>
      <point x="132" y="764" type="line"/>
      <point x="132" y="764" type="line"/>
      <point x="132" y="255" type="line"/>
      <point x="362" y="0" type="line"/>
      <point x="793" y="0" type="line"/>
      <point x="1023" y="255" type="line"/>
      <point x="1023" y="1145" type="line"/>
    </contour>
    <contour>
      <point x="387" y="1304" type="line"/>
      <point x="514" y="1304" type="line"/>
      <point x="641" y="1272" type="line"/>
      <point x="768" y="1145" type="line"/>
      <point x="768" y="96" type="line"/>
      <point x="641" y="96" type="line"/>
      <point x="641" y="96" type="line"/>
      <point x="387" y="255" type="line"/>
      <point x="387" y="764" type="line"/>
      <point x="387" y="764" type="line"/>
    </contour>
    <contour>
      <point x="1429" y="1400" type="line"/>
      <point x="768" y="1400" type="line"/>
      <point x="768" y="0" type="line"/>
      <point x="1463" y="0" type="line"/>
      <point x="1622" y="127" type="line"/>
      <point x="1622" y="254" type="line"/>
      <point x="1438" y="254" type="line"/>
      <point x="1438" y="255" type="line"/>
      <point x="1184" y="96" type="line"/>
      <point x="1184" y="97" type="line"/>
      <point x="1022" y="97" type="line"/>
      <point x="1022" y="636" type="line"/>
      <point x="1277" y="636" type="line"/>
      <point x="1277" y="763" type="line"/>
      <point x="1022" y="763" type="line"/>
      <point x="1022" y="1303" type="line"/>
      <point x="1150" y="1303" type="line"/>
      <point x="1150" y="1303" type="line"/>
      <point x="1277" y="1272" type="line"/>
      <point x="1404" y="1145" type="line"/>
      <point x="1404" y="1145" type="line"/>
      <point x="1588" y="1145" type="line"/>
      <point x="1587" y="1272" type="line"/>
    </contour>
  </outline>
</glyph>
<glyph name="oe" format="1">
  <advance width="1500"/>
  <unicode hex="0153"/>
  <outline>
    <contour>
      <point x="1185" y="1024" type="line"/>
      <point x="1416" y="768" type="line"/>
      <point x="1416" y="640" type="line"/>
      <point x="1184" y="384" type="line"/>
      <point x="904" y="384" type="line"/>
      <point x="904" y="256" type="line"/>
      <point x="901" y="256" type="line"/>
      <point x="904" y="256" type="line"/>
      <point x="904" y="256" type="line"/>
      <point x="1083" y="145" type="line"/>
      <point x="1255" y="197" type="line"/>
      <point x="1352" y="197" type="line"/>
      <point x="1352" y="104" type="line"/>
      <point x="1160" y="0" type="line"/>
      <point x="1160" y="0" type="line"/>
      <point x="880" y="0" type="line"/>
      <point x="648" y="256" type="line"/>
      <point x="648" y="768" type="line"/>
      <point x="880" y="1024" type="line"/>
    </contour>
    <contour>
      <point x="904" y="481" type="line"/>
      <point x="1032" y="512" type="line"/>
      <point x="1160" y="640" type="line"/>
      <point x="1160" y="768" type="line"/>
      <point x="1032" y="896" type="line"/>
      <point x="904" y="927" type="line"/>
    </contour>
    <contour>
      <point x="904" y="768" type="line"/>
      <point x="904" y="256" type="line"/>
      <point x="672" y="0" type="line"/>
      <point x="367" y="0" type="line"/>
      <point x="136" y="256" type="line"/>
      <point x="136" y="768" type="line"/>
      <point x="367" y="1024" type="line"/>
      <point x="673" y="1024" type="line"/>
    </contour>
    <contour>
      <point x="648" y="97" type="line"/>
      <point x="648" y="767" type="line"/>
      <point x="520" y="895" type="line"/>
      <point x="392" y="927" type="line"/>
      <point x="392" y="256" type="line"/>
    </contour>
  </outline>
</glyph>
<glyph name="semicolon" format="1">
  <advance width="497"/>
  <unicode hex="037E"/>
  <outline>
    <contour>
      <point x="240" y="900" type="line"/>
      <point x="86" y="746" type="line"/>
      <point x="240" y="591" type="line"/>
      <point x="395" y="746" type="line"/>
    </contour>
    <contour>
      <point x="87" y="134" type="line"/>
      <point x="221" y="0" type="line"/>
      <point x="212" y="-34" type="line"/>
      <point x="84" y="-162" type="line"/>
      <point x="266" y="-162" type="line"/>
      <point x="341" y="-87" type="line"/>
      <point x="356" y="-34" type="line"/>
      <point x="396" y="134" type="line"/>
      <point x="241" y="288" type="line"/>
    </contour>
  </outline>
</glyph>
<glyph name="endash" format="1">
  <advance width="800"/>
  <unicode hex="2013"/>
  <outline>
    <contour>
      <point x="83" y="664" type="line"/>
      <point x="83" y="478" type="line"/>
      <point x="151" y="407" type="line"/>
      <point x="716" y="407" type="line"/>
      <point x="716" y="664" type="line"/>
    </contour>
  </outline>
</glyph>
<glyph name="emdash" format="1">
  <advance width="1840"/>
  <unicode hex="2014"/>
  <outline>
    <contour>
      <point x="83" y="664" type="line"/>
      <point x="83" y="478" type="line"/>
      <point x="151" y="407" type="line"/>
      <point x="1756" y="407" type="line"/>
      <point x="1756" y="664" type="line"/>
    </contour>
  </outline>
</glyph>
<glyph name="quoteleft" format="1">
  <advance width="557"/>
  <unicode hex="2018"/>
  <outline>
    <contour>
      <point x="429" y="1105" type="line"/>
      <point x="296" y="1239" type="line"/>
      <point x="304" y="1273" type="line"/>
      <point x="432" y="1401" type="line"/>
      <point x="251" y="1401" type="line"/>
      <point x="176" y="1326" type="line"/>
      <point x="160" y="1273" type="line"/>
      <point x="120" y="1105" type="line"/>
      <point x="275" y="951" type="line"/>
    </contour>
  </outline>
</glyph>
<glyph name="quoteright" format="1">
  <advance width="557"/>
  <unicode hex="2019"/>
  <outline>
    <contour>
      <point x="123" y="1287" type="line"/>
      <point x="256" y="1153" type="line"/>
      <point x="248" y="1119" type="line"/>
      <point x="120" y="991" type="line"/>
      <point x="301" y="991" type="line"/>
      <point x="376" y="1066" type="line"/>
      <point x="392" y="1119" type="line"/>
      <point x="432" y="1287" type="line"/>
      <point x="277" y="1441" type="line"/>
    </contour>
  </outline>
</glyph>
<glyph name="quotedblleft" format="1">
  <advance width="910"/>
  <unicode hex="201C"/>
  <outline>
    <contour>
      <point x="640" y="990" type="line"/>
      <point x="485" y="1144" type="line"/>
      <point x="524" y="1313" type="line"/>
      <point x="540" y="1366" type="line"/>
      <point x="614" y="1441" type="line"/>
      <point x="796" y="1441" type="line"/>
      <point x="668" y="1313" type="line"/>
      <point x="660" y="1279" type="line"/>
      <point x="794" y="1145" type="line"/>
    </contour>
    <contour>
      <point x="252" y="990" type="line"/>
      <point x="97" y="1144" type="line"/>
      <point x="136" y="1313" type="line"/>
      <point x="152" y="1366" type="line"/>
      <point x="226" y="1441" type="line"/>
      <point x="408" y="1441" type="line"/>
      <point x="280" y="1313" type="line"/>
      <point x="272" y="1279" type="line"/>
      <point x="406" y="1145" type="line"/>
    </contour>
  </outline>
</glyph>
<glyph name="quotedblright" format="1">
  <advance width="910"/>
  <unicode hex="201D"/>
  <outline>
    <contour>
      <point x="100" y="1287" type="line"/>
      <point x="233" y="1153" type="line"/>
      <point x="225" y="1119" type="line"/>
      <point x="97" y="991" type="line"/>
      <point x="278" y="991" type="line"/>
      <point x="353" y="1066" type="line"/>
      <point x="369" y="1119" type="line"/>
      <point x="409" y="1287" type="line"/>
      <point x="254" y="1441" type="line"/>
    </contour>
    <contour>
      <point x="488" y="1287" type="line"/>
      <point x="621" y="1153" type="line"/>
      <point x="613" y="1119" type="line"/>
      <point x="485" y="991" type="line"/>
      <point x="666" y="991" type="line"/>
      <point x="741" y="1066" type="line"/>
      <point x="757" y="1119" type="line"/>
      <point x="797" y="1287" type="line"/>
      <point x="642" y="1441" type="line"/>
    </contour>
  </outline>
</glyph>
<glyph name="minus" format="1">
  <advance width="1014"/>
  <unicode hex="2212"/>
  <outline>
    <contour>
      <point x="183" y="664" type="line"/>
      <point x="183" y="478" type="line"/>
      <point x="251" y="407" type="line"/>
      <point x="815" y="406" type="line"/>
      <point x="816" y="663" type="line"/>
    </contour>
  </outline>
</glyph>
<glyph name=".notdef" format="1">
  <advance width="1024"/>
  <outline>
    <contour>
      <point x="100" y="0" type="line"/>
      <point x="100" y="1434" type="line"/>
      <point x="924" y="1434" type="line"/>
      <point x="924" y="0" type="line"/>
    </contour>
    <contour>
      <point x="150" y="50" type="line"/>
      <point x="874" y="50" type="line"/>
      <point x="874" y="1384" type="line"/>
      <point x="150" y="1384" type="line"/>
    </contour>
    <contour>
      <point x="325" y="1148" type="line"/>
      <point x="340.5" y="1162.0" name="inserted"/>
      <point x="369.5" y="1183.5"/>
      <point x="383" y="1191" type="qcurve" smooth="yes"/>
      <point x="409.5" y="1206.0" name="inserted"/>
      <point x="465.5" y="1221.0"/>
      <point x="495" y="1221" type="qcurve" smooth="yes"/>
      <point x="587" y="1221"/>
      <point x="699" y="1126"/>
      <point x="699" y="1046" type="qcurve" smooth="yes"/>
      <point x="699" y="997"/>
      <point x="653" y="898"/>
      <point x="589" y="818" type="qcurve" smooth="yes"/>
      <point x="526" y="738"/>
      <point x="454" y="634"/>
      <point x="454" y="587" type="qcurve" smooth="yes"/>
      <point x="454.0" y="568.0" name="inserted"/>
      <point x="466.0" y="501.5"/>
      <point x="478" y="454" type="qcurve"/>
      <point x="446" y="454" type="line"/>
      <point x="428.5" y="502.5" name="inserted"/>
      <point x="411.0" y="576.5"/>
      <point x="411" y="602" type="qcurve" smooth="yes"/>
      <point x="411" y="678"/>
      <point x="574" y="962"/>
      <point x="574" y="1037" type="qcurve" smooth="yes"/>
      <point x="574" y="1094"/>
      <point x="508" y="1160"/>
      <point x="450" y="1160" type="qcurve" smooth="yes"/>
      <point x="431.0" y="1160.0" name="inserted"/>
      <point x="396.5" y="1151.5"/>
      <point x="381" y="1143" type="qcurve" smooth="yes"/>
      <point x="368.0" y="1135.5" name="inserted"/>
      <point x="340.0" y="1115.5"/>
      <point x="325" y="1103" type="qcurve"/>
    </contour>
    <contour>
      <point x="389" y="334" type="qcurve" smooth="yes"/>
      <point x="446" y="392" type="line"/>
      <point x="451.5" y="397.0" name="inserted"/>
      <point x="461.5" y="402.0"/>
      <point x="466" y="402" type="qcurve" smooth="yes"/>
      <point x="471.0" y="402.0" name="inserted"/>
      <point x="482.0" y="396.5"/>
      <point x="488" y="391" type="qcurve"/>
      <point x="544" y="331" type="line"/>
      <point x="548.5" y="325.5" name="inserted"/>
      <point x="553.0" y="315.5"/>
      <point x="553" y="311" type="qcurve" smooth="yes"/>
      <point x="553.0" y="305.5" name="inserted"/>
      <point x="548.0" y="294.5"/>
      <point x="543" y="289" type="qcurve" smooth="yes"/>
      <point x="487" y="227" type="line"/>
      <point x="480.0" y="220.0" name="inserted"/>
      <point x="469.5" y="213.0"/>
      <point x="466" y="213" type="qcurve" smooth="yes"/>
      <point x="460.5" y="213.0" name="inserted"/>
      <point x="450.5" y="218.0"/>
      <point x="446" y="223" type="qcurve" smooth="yes"/>
      <point x="385" y="294" type="line" smooth="yes"/>
      <point x="381.5" y="298.5" name="inserted"/>
      <point x="378.0" y="307.5"/>
      <point x="378" y="312" type="qcurve" smooth="yes"/>
      <point x="378.0" y="317.0" name="inserted"/>
      <point x="383.5" y="328.0"/>
    </contour>
  </outline>
</glyph>
<glyph name="dotlessi.alt" format="1">
  <advance width="584"/>
  <outline>
    <contour>
      <point x="395" y="1024" type="line"/>
      <point x="292" y="910" type="line"/>
      <point x="189" y="1024" type="line"/>
      <point x="164" y="1024" type="line"/>
      <point x="164" y="0" type="line"/>
      <point x="420" y="0" type="line"/>
      <point x="420" y="1024" type="line"/>
    </contour>
  </outline>
</glyph>
<glyph name="i.alt" format="1">
  <advance width="594"/>
  <outline>
    <contour>
      <point x="296" y="1440" type="line"/>
      <point x="117" y="1259" type="line"/>
      <point x="296" y="1080" type="line"/>
      <point x="477" y="1259" type="line"/>
    </contour>
    <contour>
      <point x="395" y="1024" type="line"/>
      <point x="292" y="910" type="line"/>
      <point x="189" y="1024" type="line"/>
      <point x="164" y="1024" type="line"/>
      <point x="164" y="0" type="line"/>
      <point x="420" y="0" type="line"/>
      <point x="420" y="1024" type="line"/>
    </contour>
  </outline>
</glyph>
<glyph name="iacute.alt" format="1">
  <advance width="584"/>
  <outline>
    <contour>
      <point x="436" y="1441" type="line"/>
      <point x="308" y="1313" type="line"/>
      <point x="180" y="1281" type="line"/>
      <point x="180" y="1184" type="line"/>
      <point x="361" y="1184" type="line"/>
      <point x="436" y="1259" type="line"/>
    </contour>
    <component base="dotlessi.alt"/>
  </outline>
</glyph>
<glyph name="icircumflex.alt" format="1">
  <advance width="584"/>
  <outline>
    <contour>
      <point x="293" y="1441" type="line"/>
      <point x="165" y="1312" type="line"/>
      <point x="37" y="1281" type="line"/>
      <point x="37" y="1184" type="line"/>
      <point x="218" y="1184" type="line"/>
      <point x="293" y="1259" type="line"/>
      <point x="367" y="1184" type="line"/>
      <point x="548" y="1184" type="line"/>
      <point x="548" y="1281" type="line"/>
      <point x="420" y="1312" type="line"/>
    </contour>
    <component base="dotlessi.alt"/>
  </outline>
</glyph>
<glyph name="idieresis.alt" format="1">
  <advance width="584"/>
  <outline>
    <contour>
      <point x="148" y="1441" type="line"/>
      <point x="31" y="1324" type="line"/>
      <point x="148" y="1206" type="line"/>
      <point x="265" y="1324" type="line"/>
    </contour>
    <contour>
      <point x="436" y="1441" type="line"/>
      <point x="319" y="1324" type="line"/>
      <point x="436" y="1206" type="line"/>
      <point x="553" y="1324" type="line"/>
    </contour>
    <component base="dotlessi.alt"/>
  </outline>
</glyph>
<glyph name="igrave.alt" format="1">
  <advance width="584"/>
  <outline>
    <contour>
      <point x="132" y="1441" type="line"/>
      <point x="132" y="1259" type="line"/>
      <point x="207" y="1184" type="line"/>
      <point x="389" y="1184" type="line"/>
      <point x="389" y="1281" type="line"/>
      <point x="260" y="1313" type="line"/>
    </contour>
    <component base="dotlessi.alt"/>
  </outline>
</glyph>
